<svg width="749" height="320" viewBox="0 0 749 320" fill="none" xmlns="http://www.w3.org/2000/svg"><path fill="#000" d="M208 0h320v320H208z"/><path fill="#3100FF" d="M237.6 0h.399998v320H237.6z"/><path fill="#7300FF" d="M222.4 0h.400002v320H222.4z"/><path fill="#FF8400" d="M434.801 0h1.2v320h-1.2z"/><path fill="#CE0000" d="M500 0h1.60001v320H500z"/><path fill="#008452" d="M313.201 0h.400009v320H313.201z"/><path fill="#005ADE" d="M273.201 0h.399994v320H273.201z"/><path d="M227.537 35.1308c-1.969 0-3.754-.4232-5.355-1.2696-1.582-.8648-2.833-2.0516-3.753-3.5604-.902-1.5272-1.353-3.2476-1.353-5.1612 0-1.9136.451-3.6248 1.353-5.1336.92-1.5272 2.171-2.714 3.753-3.5604 1.601-.8648 3.395-1.2972 5.382-1.2972 1.675 0 3.183.2944 4.527.8832 1.361.5888 2.502 1.4352 3.422 2.5392l-2.87 2.6496c-1.307-1.5088-2.926-2.2632-4.858-2.2632-1.196 0-2.263.2668-3.202.8004-.938.5152-1.674 1.242-2.208 2.1804-.515.9384-.772 2.0056-.772 3.2016 0 1.196.257 2.2632.772 3.2016.534.9384 1.27 1.6744 2.208 2.208.939.5152 2.006.7728 3.202.7728 1.932 0 3.551-.7636 4.858-2.2908l2.87 2.6496c-.92 1.1224-2.061 1.978-3.422 2.5668-1.362.5888-2.88.8832-4.554.8832zM242.341 21.9104c.515-.7176 1.205-1.2604 2.07-1.6284.883-.368 1.895-.552 3.036-.552v3.9744c-.478-.0368-.8-.0552-.966-.0552-1.233 0-2.199.3496-2.898 1.0488-.699.6808-1.049 1.7112-1.049 3.0912v7.0104h-4.305V19.9508h4.112v1.9596zM264.418 27.4304c0 .0552-.028.4416-.083 1.1592h-11.233c.202.92.68 1.6468 1.435 2.1804.754.5336 1.693.8004 2.815.8004.773 0 1.454-.1104 2.042-.3312.608-.2392 1.169-.6072 1.684-1.104l2.291 2.484c-1.399 1.6008-3.441 2.4012-6.127 2.4012-1.675 0-3.156-.322-4.444-.966-1.288-.6624-2.282-1.5732-2.981-2.7324-.699-1.1592-1.049-2.4748-1.049-3.9468 0-1.4536.341-2.76 1.022-3.9192.699-1.1776 1.646-2.0884 2.842-2.7324 1.215-.6624 2.567-.9936 4.058-.9936 1.453 0 2.769.3128 3.946.9384 1.178.6256 2.098 1.5272 2.76 2.7048.681 1.1592 1.022 2.5116 1.022 4.0572zm-7.701-4.4436c-.975 0-1.794.276-2.456.828-.663.552-1.067 1.3064-1.215 2.2632h7.314c-.147-.9384-.552-1.6836-1.214-2.2356-.662-.5704-1.472-.8556-2.429-.8556zM272.869 19.73c2.3 0 4.067.552 5.299 1.656 1.233 1.0856 1.85 2.7324 1.85 4.9404v8.4732h-4.03v-1.8492c-.81 1.38-2.318 2.07-4.526 2.07-1.141 0-2.135-.1932-2.981-.5796-.828-.3864-1.463-.92-1.905-1.6008-.441-.6808-.662-1.4536-.662-2.3184 0-1.38.515-2.4656 1.546-3.2568 1.048-.7912 2.658-1.1868 4.83-1.1868h3.422c0-.9384-.285-1.656-.856-2.1528-.57-.5152-1.426-.7728-2.566-.7728-.792 0-1.574.1288-2.346.3864-.755.2392-1.399.5704-1.932.9936l-1.546-3.0084c.81-.5704 1.776-1.012 2.898-1.3248 1.141-.3128 2.309-.4692 3.505-.4692zm-.331 12.3924c.736 0 1.389-.1656 1.96-.4968.57-.3496.975-.8556 1.214-1.518v-1.518h-2.953c-1.767 0-2.65.5796-2.65 1.7388 0 .552.212.9936.635 1.3248.442.3128 1.04.4692 1.794.4692zM293.491 34.082c-.423.3128-.947.552-1.573.7176-.607.1472-1.251.2208-1.932.2208-1.766 0-3.137-.4508-4.112-1.3524-.957-.9016-1.435-2.2264-1.435-3.9744V23.594h-2.291v-3.312h2.291v-3.6156h4.305v3.6156h3.699v3.312h-3.699v6.0444c0 .6256.157 1.1132.469 1.4628.332.3312.792.4968 1.38.4968.681 0 1.261-.184 1.739-.552l1.159 3.036zM309.995 27.4304c0 .0552-.027.4416-.082 1.1592h-11.234c.203.92.681 1.6468 1.436 2.1804.754.5336 1.692.8004 2.815.8004.773 0 1.453-.1104 2.042-.3312.607-.2392 1.169-.6072 1.684-1.104l2.291 2.484c-1.399 1.6008-3.441 2.4012-6.128 2.4012-1.674 0-3.155-.322-4.443-.966-1.288-.6624-2.282-1.5732-2.981-2.7324-.699-1.1592-1.049-2.4748-1.049-3.9468 0-1.4536.341-2.76 1.021-3.9192.7-1.1776 1.647-2.0884 2.843-2.7324 1.215-.6624 2.567-.9936 4.057-.9936 1.454 0 2.77.3128 3.947.9384 1.178.6256 2.098 1.5272 2.76 2.7048.681 1.1592 1.021 2.5116 1.021 4.0572zm-7.7-4.4436c-.975 0-1.794.276-2.456.828-.663.552-1.068 1.3064-1.215 2.2632h7.314c-.147-.9384-.552-1.6836-1.214-2.2356-.663-.5704-1.472-.8556-2.429-.8556zM227.537 68.7308c-1.969 0-3.754-.4232-5.355-1.2696-1.582-.8648-2.833-2.0516-3.753-3.5604-.902-1.5272-1.353-3.2476-1.353-5.1612 0-1.9136.451-3.6248 1.353-5.1336.92-1.5272 2.171-2.714 3.753-3.5604 1.601-.8648 3.395-1.2972 5.382-1.2972 1.675 0 3.183.2944 4.527.8832 1.361.5888 2.502 1.4352 3.422 2.5392l-2.87 2.6496c-1.307-1.5088-2.926-2.2632-4.858-2.2632-1.196 0-2.263.2668-3.202.8004-.938.5152-1.674 1.242-2.208 2.1804-.515.9384-.772 2.0056-.772 3.2016 0 1.196.257 2.2632.772 3.2016.534.9384 1.27 1.6744 2.208 2.208.939.5152 2.006.7728 3.202.7728 1.932 0 3.551-.7636 4.858-2.2908l2.87 2.6496c-.92 1.1224-2.061 1.978-3.422 2.5668-1.362.5888-2.88.8832-4.554.8832zM252.811 53.5508v14.8488h-4.085v-1.7664c-.571.644-1.251 1.1408-2.043 1.4904-.791.3312-1.646.4968-2.566.4968-1.951 0-3.496-.5612-4.637-1.6836-1.141-1.1224-1.711-2.7876-1.711-4.9956v-8.3904h4.305v7.7556c0 2.392 1.003 3.588 3.009 3.588 1.03 0 1.858-.3312 2.484-.9936.625-.6808.938-1.6836.938-3.0084v-7.3416h4.306zM266.377 67.682c-.424.3128-.948.552-1.574.7176-.607.1472-1.251.2208-1.932.2208-1.766 0-3.137-.4508-4.112-1.3524-.957-.9016-1.435-2.2264-1.435-3.9744V57.194h-2.291v-3.312h2.291v-3.6156h4.305v3.6156h3.699v3.312h-3.699v6.0444c0 .6256.157 1.1132.47 1.4628.331.3312.791.4968 1.38.4968.68 0 1.26-.184 1.738-.552l1.16 3.036zM224.639 102.331c-1.528 0-3.009-.203-4.444-.607-1.417-.424-2.558-.966-3.422-1.629l1.518-3.367c.828.6072 1.812 1.0948 2.953 1.4628 1.141.368 2.281.552 3.422.552 1.27 0 2.208-.184 2.815-.552.608-.3864.911-.8924.911-1.518 0-.46-.184-.8372-.552-1.1316-.349-.3128-.809-.5612-1.38-.7452-.552-.184-1.306-.3864-2.263-.6072-1.472-.3496-2.677-.6992-3.616-1.0488-.938-.3496-1.748-.9108-2.428-1.6836-.663-.7728-.994-1.8032-.994-3.0912 0-1.1224.304-2.1344.911-3.036.607-.92 1.518-1.6468 2.732-2.1804 1.233-.5336 2.733-.8004 4.499-.8004 1.233 0 2.438.1472 3.616.4416 1.177.2944 2.208.7176 3.091 1.2696l-1.38 3.3948c-1.785-1.012-3.57-1.518-5.355-1.518-1.251 0-2.18.2024-2.787.6072-.589.4048-.883.9384-.883 1.6008s.34 1.1592 1.021 1.4904c.699.3128 1.757.6256 3.174.9384 1.472.3496 2.677.6992 3.615 1.0488.939.3496 1.739.9016 2.402 1.656.68.7544 1.021 1.7756 1.021 3.0636 0 1.104-.313 2.116-.939 3.036-.607.9014-1.527 1.6194-2.76 2.1524-1.232.534-2.732.801-4.498.801zM244.613 86.93c1.84 0 3.321.552 4.443 1.656 1.141 1.104 1.711 2.7416 1.711 4.9128V102h-4.305v-7.8388c0-1.1776-.258-2.0516-.773-2.622-.515-.5888-1.26-.8832-2.236-.8832-1.085 0-1.95.3404-2.594 1.0212-.644.6624-.966 1.656-.966 2.9808V102h-4.306V81.5204h4.306v7.176c.57-.5704 1.26-1.0028 2.07-1.2972.81-.3128 1.693-.4692 2.65-.4692zM260.659 86.93c2.3 0 4.067.552 5.3 1.656 1.232 1.0856 1.849 2.7324 1.849 4.9404V102h-4.03v-1.85c-.809 1.38-2.318 2.07-4.526 2.07-1.141 0-2.135-.193-2.981-.579-.828-.387-1.463-.92-1.904-1.601-.442-.6808-.663-1.4536-.663-2.3184 0-1.38.515-2.4656 1.546-3.2568 1.049-.7912 2.659-1.1868 4.83-1.1868h3.422c0-.9384-.285-1.656-.855-2.1528-.571-.5152-1.426-.7728-2.567-.7728-.791 0-1.573.1288-2.346.3864-.755.2392-1.399.5704-1.932.9936l-1.546-3.0084c.81-.5704 1.776-1.012 2.898-1.3248 1.141-.3128 2.309-.4692 3.505-.4692zm-.331 12.3924c.736 0 1.389-.1656 1.96-.4968.57-.3496.975-.8556 1.214-1.518v-1.518h-2.953c-1.766 0-2.65.5796-2.65 1.7388 0 .552.212.9936.635 1.3248.442.3128 1.04.4692 1.794.4692zM275.817 89.1104c.515-.7176 1.205-1.2604 2.07-1.6284.883-.368 1.895-.552 3.036-.552v3.9744c-.478-.0368-.8-.0552-.966-.0552-1.233 0-2.199.3496-2.898 1.0488-.699.6808-1.049 1.7112-1.049 3.0912V102h-4.305V87.1508h4.112v1.9596zM297.893 94.6304c0 .0552-.027.4416-.082 1.1592h-11.234c.203.92.681 1.6468 1.436 2.1804.754.5336 1.692.8004 2.815.8004.773 0 1.453-.1104 2.042-.3312.607-.2392 1.169-.6072 1.684-1.104l2.291 2.484c-1.399 1.6008-3.441 2.4008-6.128 2.4008-1.674 0-3.155-.322-4.443-.966-1.288-.662-2.282-1.5728-2.981-2.732-.699-1.1592-1.049-2.4748-1.049-3.9468 0-1.4536.341-2.76 1.021-3.9192.7-1.1776 1.647-2.0884 2.843-2.7324 1.215-.6624 2.567-.9936 4.057-.9936 1.454 0 2.77.3128 3.947.9384 1.178.6256 2.098 1.5272 2.76 2.7048.681 1.1592 1.021 2.5116 1.021 4.0572zm-7.7-4.4436c-.975 0-1.794.276-2.456.828-.663.552-1.068 1.3064-1.215 2.2632h7.314c-.147-.9384-.552-1.6836-1.214-2.2356-.663-.5704-1.472-.8556-2.429-.8556zM231.345 125.636h4.085v7.838c-1.049.792-2.263 1.399-3.643 1.822-1.38.423-2.769.635-4.168.635-2.005 0-3.808-.423-5.409-1.27-1.601-.865-2.861-2.051-3.781-3.56-.902-1.527-1.353-3.248-1.353-5.161 0-1.914.451-3.625 1.353-5.134.92-1.527 2.189-2.714 3.808-3.56 1.62-.865 3.441-1.298 5.465-1.298 1.693 0 3.229.286 4.609.856 1.38.57 2.54 1.398 3.478 2.484l-2.87 2.65c-1.38-1.454-3.046-2.181-4.996-2.181-1.233 0-2.328.258-3.284.773-.957.515-1.702 1.242-2.236 2.18-.534.939-.8 2.015-.8 3.23 0 1.196.266 2.263.8 3.201.534.939 1.27 1.675 2.208 2.208.957.515 2.042.773 3.257.773 1.288 0 2.447-.276 3.477-.828v-5.658zM243.392 122.71c.516-.717 1.206-1.26 2.07-1.628.884-.368 1.896-.552 3.036-.552v3.974c-.478-.036-.8-.055-.966-.055-1.232 0-2.198.35-2.898 1.049-.699.681-1.048 1.711-1.048 3.091v7.011h-4.306v-14.849h4.112v1.959zM257.989 135.82c-1.564 0-2.971-.322-4.223-.966-1.232-.662-2.198-1.573-2.898-2.732-.699-1.159-1.048-2.475-1.048-3.947s.349-2.787 1.048-3.947c.7-1.159 1.666-2.06 2.898-2.704 1.252-.663 2.659-.994 4.223-.994s2.963.331 4.195.994c1.233.644 2.199 1.545 2.898 2.704.7 1.16 1.049 2.475 1.049 3.947s-.349 2.788-1.049 3.947c-.699 1.159-1.665 2.07-2.898 2.732-1.232.644-2.631.966-4.195.966zm0-3.532c1.104 0 2.006-.368 2.705-1.104.718-.755 1.076-1.758 1.076-3.009s-.358-2.245-1.076-2.981c-.699-.754-1.601-1.131-2.705-1.131s-2.015.377-2.732 1.131c-.718.736-1.077 1.73-1.077 2.981s.359 2.254 1.077 3.009c.717.736 1.628 1.104 2.732 1.104zM292.451 120.751l-5.382 14.849h-4.14l-3.339-9.219-3.45 9.219H272l-5.355-14.849h4.058l3.505 10.046 3.643-10.046h3.643l3.533 10.046 3.616-10.046h3.808zM241.833 154.351l-5.382 14.849h-4.14l-3.339-9.219-3.45 9.219h-4.14l-5.355-14.849h4.058l3.505 10.046 3.643-10.046h3.643l3.533 10.046 3.616-10.046h3.808zM243.835 154.351h4.306V169.2h-4.306v-14.849zm2.153-2.07c-.791 0-1.435-.23-1.932-.69-.497-.46-.745-1.031-.745-1.711 0-.681.248-1.252.745-1.712.497-.46 1.141-.69 1.932-.69.791 0 1.435.221 1.932.663.497.441.745.993.745 1.656 0 .717-.248 1.315-.745 1.794-.497.46-1.141.69-1.932.69zM261.714 168.482c-.423.313-.948.552-1.573.718-.608.147-1.252.22-1.932.22-1.767 0-3.138-.45-4.113-1.352-.957-.902-1.435-2.226-1.435-3.974v-6.1h-2.291v-3.312h2.291v-3.616h4.306v3.616h3.698v3.312h-3.698v6.044c0 .626.156 1.114.469 1.463.331.331.791.497 1.38.497.681 0 1.26-.184 1.739-.552l1.159 3.036zM273.156 154.13c1.84 0 3.321.552 4.443 1.656 1.141 1.104 1.712 2.742 1.712 4.913v8.501h-4.306v-7.839c0-1.177-.258-2.051-.773-2.622-.515-.589-1.26-.883-2.235-.883-1.086 0-1.951.34-2.595 1.021-.644.663-.966 1.656-.966 2.981v7.342h-4.305v-20.48h4.305v7.176c.571-.57 1.261-1.002 2.07-1.297.81-.313 1.693-.469 2.65-.469z" fill="#C5C5C5"/><path d="M320.752 254.136c4.732-.287 9.48-.805 14.062-2.055 10.33-2.818 20.618-13.19 30.697-13.377 7.531-.14 14.376 4.735 20.922 7.802 7.626 3.572 15.646 5.673 24.009 6.654 15.728 1.844 31.779 1.409 47.589 1.444 23.323.051 46.646-.005 69.969.024H521.14c-4.573 0-9.146 0-13.719.001-13.719 0-27.439-.003-41.158.01-20.624.019-42.106-1.254-62.509 2.219-6.985 1.188-13.616 3.389-20.065 6.276-5.952 2.665-12.197 6.199-18.95 5.797-7.098-.423-13.141-4.99-19.292-8.045-6.578-3.267-13.531-4.921-20.837-5.548-2.795-.24-5.599-.37-8.403-.458-.43-.013 3.427-.676 4.545-.744z" fill="url(#paint0_radial)"/><path d="M208.946 237.509H228.831c14.506-.001 29.038.229 43.541-.153 7.861-.207 15.811-.625 21.256-7.095 3.127-3.715 5.136-8.176 7.885-12.149 1.111-1.605 2.706-3.831 4.886-3.852 3.984-.039 7.498 6.272 9.771 8.886 5.148 5.923 11.307 10.717 19.027 12.597 10.559 2.57 22.129 1.73 32.913 1.752 17.799.036 35.599.006 53.398.014H399.309c-14.798.001-29.601-.105-44.398.088-10.532.136-21.618.143-30.77 6.098-4.078 2.653-7.434 6.119-10.714 9.68-1.706 1.852-3.84 4.649-6.514 5.024-2.654.372-4.648-2.363-6-4.24-3.178-4.415-5.716-9.573-10.285-12.762-8.072-5.633-21.096-3.841-30.427-3.869-11.771-.034-23.542-.018-35.313-.019H208.946z" fill="url(#paint1_radial)"/><path d="M316.824 216.602h10.719c15.292-.001 30.585.06 45.877-.019 4.899-.025 11.349.699 15.435-2.529 2.357-1.863 6.016-9.61 8.489-9.716 2.594-.112 4.723 4.986 6.003 6.689 2.751 3.66 6.304 5.1 10.805 5.165 4.112.058 7.77-2.09 11.748-2.098 4.117-.01 8.095 2.041 12.348 2.098 11.398.151 22.669-1.877 34.043-1.987 9.659-.093 19.253 1.674 28.898 2.068 6.056.248 12.12.277 18.18.3 2.697.011 5.933-.483 8.575.02.281.053-.572.017-.858.017-.543.001-1.086.002-1.629.002-1.658.003-3.316.006-4.974.011-4.973.015-9.948.036-14.92.147-14.884.331-29.428 2.587-44.334 1.383-8.278-.668-16.727-1.56-25.039-1.12-3.472.184-6.778 1.796-10.205 1.825-5.56.049-9.45-2.776-15.778-1.513-3.624.723-6.011 3.046-8.146 5.925-1.038 1.398-2.586 4.352-4.631 4.37-1.801.017-3.139-2.346-4.03-3.597-1.943-2.729-3.952-5.45-7.289-6.501-3.879-1.222-8.328-.902-12.348-.923-6.832-.035-13.664-.017-20.495-.017-8.832-.001-17.665 0-26.497 0h-9.947z" fill="url(#paint2_radial)"/><path d="M208.001 221.637h3.683c4.653 0 9.306 0 13.959-.001 12.133 0 24.266.011 36.399-.018 8.427-.019 18.313 1.147 26.463-1.309 4.153-1.251 6.86-5.468 10.963-6.421 3.438-.799 6.673 1.685 10.277.745 5.646-1.473 9.989-6.367 16.015-6.708 8.174-.463 15.35 7.787 23.894 8.757 6.358.721 12.646-1.293 19.013-.587 4.601.509 8.975 2.131 13.446 3.234 4.667 1.151 9.422 1.713 14.217 1.962 5.845.305 11.706.302 17.557.323 2.431.008 5.229-.38 7.622.015.282.047-.571.015-.856.015-.514.001-1.028.002-1.542.002-1.57.002-3.14.005-4.71.01-4.768.014-9.537.027-14.303.156-5.191.139-10.389.441-15.501 1.394-8.859 1.651-16.463 4.077-25.607 3.164-5.699-.568-11.121-.616-16.53 1.524-5.451 2.158-10.718 6.471-16.871 6.073-5.294-.342-9.528-3.918-14.388-5.6-4.225-1.463-7.809 1.128-11.819.225-4.356-.981-7.335-5.037-11.904-6.008-5.404-1.148-11.205-.856-16.701-.895-8.878-.064-17.757-.048-26.635-.05-8.164-.002-16.329-.002-24.494-.002h-11.647z" fill="url(#paint3_radial)"/><path d="M208.106 271.196h4.883c3.77-.001 7.539-.002 11.309-.005 11.033-.01 26.72 1.7 36.924-2.61 5.963-2.519 9.765-7.798 13.622-12.749 1.956-2.511 4.604-6.408 8.139-6.596 4.873-.26 8.83 6.551 11.565 9.713 5.091 5.887 10.86 9.767 18.591 11.049 13.194 2.189 27.194 1.183 40.523 1.193 22.617.016 45.234.003 67.851.006H399.582c-14.593 0-29.186-.003-43.779.004-9.765.005-19.536-.058-29.299.168-6.778.157-13.962.233-20.39 2.643-5.759 2.159-9.939 6.444-14.05 10.858-2.265 2.431-5.237 6.146-8.91 6.097-5.58-.074-9.889-8.118-13.365-11.608-5.322-5.345-11.672-7.253-19.019-7.761-9.643-.668-19.382-.392-29.043-.397-3.198-.002-6.396-.003-9.595-.003-1.37 0-2.741 0-4.112-.001-.057 0 .02-.001.086-.001z" fill="url(#paint4_radial)"/><path d="M208 202.815h4.196c5.11 0 10.219-.001 15.328-.001 13.441-.003 26.895.131 40.333-.187 10.522-.248 21.59-.656 30.485-6.974 4.776-3.393 8.495-7.918 12.759-11.881 2.336-2.172 5.196-4.551 8.563-4.573 5.043-.033 9.077 4.939 12.245 8.238 5.293 5.512 10.764 10.626 18.24 12.888 8.897 2.693 18.713 2.341 27.915 2.422 14.5.127 29.002-.066 43.501.068.001 0-.084.001-.085.001H414.543c-4.709 0-9.419.001-14.129.003-14.051.007-28.396-.671-42.387.828-8.028.861-15.088 3.454-21.323 8.676-4.66 3.904-9.747 11.115-16.27 11.713-3.732.343-6.99-2.083-9.676-4.371-4.627-3.942-8.774-8.427-14.129-11.431-10.484-5.883-23.635-5.236-35.28-5.344-11.988-.111-23.977-.072-35.965-.074-4.567 0-9.134 0-13.701-.001H208z" fill="url(#paint5_radial)"/><mask id="a" maskUnits="userSpaceOnUse" x="290" y="143" width="111" height="27"><path d="M290.801 145.982h10.106c2.467 0 4.657.485 6.573 1.456 1.916.948 3.402 2.305 4.459 4.07 1.057 1.742 1.585 3.761 1.585 6.055 0 2.294-.528 4.323-1.585 6.088-1.057 1.743-2.543 3.099-4.459 4.07-1.916.948-4.106 1.422-6.573 1.422h-10.106v-23.161zm9.908 19.522c1.696 0 3.182-.32 4.459-.96 1.299-.662 2.29-1.588 2.973-2.779.704-1.213 1.057-2.614 1.057-4.202 0-1.589-.353-2.978-1.057-4.169-.683-1.214-1.674-2.14-2.973-2.78-1.277-.662-2.763-.992-4.459-.992h-5.615v15.882h5.615zM332.836 160.408c0 .287-.022.695-.066 1.225h-13.839c.242 1.301.87 2.338 1.883 3.11 1.034.75 2.312 1.125 3.831 1.125 1.937 0 3.534-.64 4.789-1.919l2.213 2.547c-.793.949-1.795 1.666-3.006 2.151-1.211.485-2.576.728-4.095.728-1.938 0-3.644-.386-5.12-1.158-1.475-.772-2.62-1.842-3.435-3.21-.792-1.389-1.189-2.955-1.189-4.698 0-1.721.386-3.265 1.156-4.632.793-1.39 1.883-2.471 3.27-3.243 1.387-.772 2.951-1.158 4.69-1.158 1.718 0 3.248.386 4.591 1.158 1.365.75 2.422 1.82 3.171 3.21.771 1.367 1.156 2.955 1.156 4.764zm-8.918-5.823c-1.321 0-2.444.397-3.369 1.191-.902.772-1.453 1.809-1.651 3.11h10.007c-.176-1.279-.715-2.316-1.618-3.11-.903-.794-2.026-1.191-3.369-1.191zM335.366 144.592h4.128v24.551h-4.128v-24.551zM343.477 151.475h4.128v17.668h-4.128v-17.668zm2.081-2.912c-.749 0-1.377-.232-1.883-.695-.506-.485-.76-1.081-.76-1.787s.254-1.29.76-1.753c.506-.486 1.134-.728 1.883-.728.748 0 1.376.231 1.882.694.507.442.76 1.004.76 1.688 0 .728-.253 1.346-.76 1.853-.484.485-1.112.728-1.882.728zM359.68 169.375c-1.827 0-3.468-.386-4.921-1.158-1.453-.772-2.587-1.842-3.402-3.21-.815-1.389-1.222-2.955-1.222-4.698 0-1.743.407-3.298 1.222-4.665.815-1.368 1.938-2.438 3.369-3.21 1.453-.772 3.104-1.158 4.954-1.158 1.74 0 3.259.353 4.558 1.059 1.321.706 2.312 1.72 2.973 3.044l-3.171 1.853c-.507-.816-1.145-1.423-1.916-1.82-.748-.419-1.574-.629-2.477-.629-1.541 0-2.818.508-3.831 1.522-1.013.993-1.52 2.328-1.52 4.004 0 1.676.496 3.022 1.487 4.037 1.013.992 2.301 1.489 3.864 1.489.903 0 1.729-.199 2.477-.596.771-.419 1.409-1.037 1.916-1.853l3.171 1.853c-.683 1.324-1.685 2.349-3.006 3.077-1.299.706-2.807 1.059-4.525 1.059zM386.419 151.475v17.668h-3.93v-2.25c-.661.795-1.487 1.412-2.477 1.853-.991.42-2.059.629-3.204.629-2.356 0-4.217-.651-5.582-1.952-1.343-1.324-2.015-3.276-2.015-5.857v-10.091h4.129v9.529c0 1.588.352 2.779 1.057 3.573.726.772 1.75 1.158 3.071 1.158 1.476 0 2.643-.452 3.501-1.356.881-.927 1.322-2.25 1.322-3.971v-8.933h4.128zM400.991 168.184c-.485.397-1.079.695-1.784.893-.682.199-1.409.298-2.18.298-1.937 0-3.435-.507-4.491-1.522-1.057-1.015-1.586-2.493-1.586-4.434v-8.503h-2.906v-3.309h2.906v-4.037h4.129v4.037h4.723v3.309h-4.723v8.404c0 .86.209 1.522.627 1.985.419.441 1.024.662 1.817.662.925 0 1.695-.243 2.312-.728l1.156 2.945z" fill="#fff"/></mask><g mask="url(#a)"><path d="M291.09 143.6v25.775h2.026V143.6h-2.026zM293.404 143.6v25.775h.579V143.6h-.579z" fill="#9F00FF"/><path d="M294.564 143.6v25.775h1.737V143.6h-1.737z" fill="#8F00FF"/><path d="M296.301 143.6v25.775h1.157V143.6h-1.157z" fill="#8000FF"/><path d="M298.035 143.6v25.775h.579V143.6h-.579z" fill="#7E00FF"/><path d="M298.906 143.6v25.775h.869V143.6h-.869z" fill="#7F00FF"/><path d="M299.773 143.6v25.775h2.605V143.6h-2.605z" fill="#6F00FF"/><path d="M302.668 143.6v25.775h2.315V143.6h-2.315z" fill="#5F00FF"/><path d="M305.562 143.6v25.775h1.158V143.6h-1.158z" fill="#5000FF"/><path d="M307.301 143.6v25.775h.579V143.6h-.579z" fill="#4E00FF"/><path d="M308.457 143.6v25.775h.579V143.6h-.579z" fill="#4000FF"/><path d="M309.326 143.6v25.775h1.158V143.6h-1.158z" fill="#3F00FF"/><path d="M310.482 143.6v25.775h2.605V143.6h-2.605z" fill="#2F00FF"/><path d="M313.088 143.6v25.775h2.605V143.6h-2.605z" fill="#1F00FF"/><path d="M316.273 143.6v25.775h.29V143.6h-.29zM316.852 143.6v25.775h.289V143.6h-.289z" fill="#0700FF"/><path d="M317.43 143.6v25.775h1.157V143.6h-1.157zM319.455 143.6v25.775h.868V143.6h-.868z" fill="#0E00FF"/><path d="M320.324 143.6v25.775h3.473V143.6h-3.473z" fill="#000FFF"/><path d="M323.797 143.6v25.775h2.315V143.6h-2.315z" fill="#0020FF"/><path d="M326.111 143.6v25.775h2.316V143.6h-2.316z" fill="#0030FF"/><path d="M328.43 143.6v25.775h2.315V143.6h-2.315z" fill="#003FFF"/><path d="M330.742 143.6v25.775h2.026V143.6h-2.026z" fill="#004FFF"/><path d="M333.061 143.6v25.775h.289V143.6h-.289z" fill="#0052FF"/><path d="M335.666 143.6v25.775h2.026V143.6h-2.026z" fill="#0070FF"/><path d="M337.693 143.6v25.775h2.895V143.6h-2.895z" fill="#0081FF"/><path d="M343.191 143.6v25.775h.579V143.6h-.579z" fill="#009FFF"/><path d="M344.059 143.6v25.775h.289V143.6h-.289z" fill="#00A2FF"/><path d="M344.639 143.6v25.775h.579V143.6h-.579z" fill="#00A8FF"/><path d="M345.506 143.6v25.775h1.736V143.6h-1.736z" fill="#00B0FF"/><path d="M347.244 143.6v25.775h.579V143.6h-.579z" fill="#00BEFF"/><path d="M348.113 143.6v25.775h.579V143.6h-.579z" fill="#00C2FF"/><path d="M349.27 143.6v25.775h2.604V143.6h-2.604z" fill="#00D0FF"/><path d="M352.453 143.6v25.775h2.026V143.6h-2.026z" fill="#00E0FF"/><path d="M354.479 143.6v25.775h1.157V143.6h-1.157z" fill="#00EFFF"/><path d="M355.926 143.6v25.775h.868V143.6h-.868z" fill="#00F1FF"/><path d="M356.797 143.6v25.775h.868V143.6h-.868z" fill="#0FF"/><path d="M357.953 143.6v25.775h.579V143.6h-.579z" fill="#00FFEB"/><path d="M358.533 143.6v25.775h1.447V143.6h-1.447z" fill="#00FFDF"/><path d="M359.98 143.6v25.775h.579V143.6h-.579z" fill="#00FFCE"/><path d="M360.848 143.6v25.775h.289V143.6h-.289z" fill="#00FFBD"/><path d="M361.428 143.6v25.775h.289V143.6h-.289z" fill="#00FFB2"/><path d="M362.004 143.6v25.775h.868V143.6h-.868z" fill="#00FFA5"/><path d="M362.875 143.6v25.775h1.447V143.6h-1.447z" fill="#00FF8F"/><path d="M364.322 143.6v25.775h.869V143.6h-.869z" fill="#00FF79"/><path d="M365.191 143.6v25.775h.869V143.6h-.869z" fill="#00FF6A"/><path d="M366.059 143.6v25.775h.868V143.6h-.868z" fill="#00FF60"/><path d="M366.926 143.6v25.775h.868V143.6h-.868z" fill="#00FF4D"/><path d="M368.953 143.6v25.775h.868V143.6h-.868z" fill="#00FF2E"/><path d="M369.822 143.6v25.775h.579V143.6h-.579z" fill="#00FF1C"/><path d="M370.979 143.6v25.775h.578V143.6h-.578z" fill="#00FF0C"/><path d="M372.137 143.6v25.775h.289V143.6h-.289z" fill="#0F0"/><path d="M372.715 143.6v25.775h1.447V143.6h-1.447z" fill="#0EFF00"/><path d="M375.033 143.6v25.775h1.447V143.6h-1.447z" fill="#10FF00"/><path d="M377.057 143.6v25.775h.868V143.6h-.868z" fill="#1DFF00"/><path d="M378.504 143.6v25.775h1.158V143.6h-1.158zM379.951 143.6v25.775h.868V143.6h-.868z" fill="#20FF00"/><path d="M380.82 143.6v25.775h.869V143.6h-.869z" fill="#2EFF00"/><path d="M382.268 143.6v25.775h1.447V143.6h-1.447z" fill="#30FF00"/><path d="M383.715 143.6v25.775h1.158V143.6h-1.158z" fill="#3FFF00"/><path d="M385.453 143.6v25.775h.579V143.6h-.579z" fill="#40FF00"/><path d="M386.32 143.6v25.775h.869V143.6h-.869z" fill="#41FF00"/><path d="M389.795 143.6v25.775h.289V143.6h-.289z" fill="#52FF00"/><path d="M390.662 143.6v25.775h.289V143.6h-.289z" fill="#5DFF00"/><path d="M391.531 143.6v25.775h.579V143.6h-.579z" fill="#60FF00"/><path d="M393.266 143.6v25.775h.289V143.6h-.289z" fill="#6EFF00"/><path d="M393.846 143.6v25.775h1.447V143.6h-1.447z" fill="#6FFF00"/><path d="M396.162 143.6v25.775h.29l-.001-25.775h-.289z" fill="#73FF00"/><path d="M396.74 143.6v25.775h.579V143.6h-.579z" fill="#7EFF00"/><path d="M397.609 143.6v25.775h1.158V143.6h-1.158z" fill="#7FFF00"/><path d="M399.346 143.6v25.775h.868V143.6h-.868z" fill="#81FF00"/><path d="M400.213 143.6v25.775h.773V143.6h-.773z" fill="#8EFF00"/></g><path fill-rule="evenodd" clip-rule="evenodd" d="M270 296.5c0-.828 1.084-1.5 2.422-1.5h238.156c1.338 0 2.422.672 2.422 1.5s-1.084 1.5-2.422 1.5H272.422c-1.338 0-2.422-.672-2.422-1.5z" fill="#fff"/><path d="M305 297c0 3.314 2.686 6 6 6s6-2.686 6-6-2.686-6-6-6-6 2.686-6 6z" fill="#fff"/><path fill-rule="evenodd" clip-rule="evenodd" d="M241 282.273c-8.134 0-14.727 6.593-14.727 14.727s6.593 14.727 14.727 14.727 14.727-6.593 14.727-14.727-6.593-14.727-14.727-14.727zM223 297c0-9.941 8.059-18 18-18s18 8.059 18 18-8.059 18-18 18-18-8.059-18-18z" fill="#fff"/><path fill-rule="evenodd" clip-rule="evenodd" d="M237.727 290.455c.904 0 1.637.732 1.637 1.636v9.818c0 .904-.733 1.636-1.637 1.636-.903 0-1.636-.732-1.636-1.636v-9.818c0-.904.733-1.636 1.636-1.636zM244.273 290.455c.903 0 1.636.732 1.636 1.636v9.818c0 .904-.733 1.636-1.636 1.636-.904 0-1.637-.732-1.637-1.636v-9.818c0-.904.733-1.636 1.637-1.636z" fill="#fff"/><path fill-rule="evenodd" clip-rule="evenodd" d="M722.659 44.9359c2.724-1.04 5.703-1.218 8.532-.5101 2.615.6543 4.986 2.0366 6.842 3.9801 2.991-.9666 5.82-2.38 8.391-4.1934l.576.8172.972.2366c-1.005 4.1247-3.093 7.9027-6.045 10.9451.107.6982.162 1.4036.164 2.1105v.0033c0 17.3385-8.312 29.8761-20.104 36.1526-11.768 6.2632-26.901 6.2392-40.473-1.3012-.404-.2249-.602-.6983-.477-1.1442.125-.4459.54-.7476 1.003-.7292 6.539.2601 12.997-1.4073 18.578-4.7751-5.876-2.918-9.789-6.6102-12.307-10.5869-2.745-4.3333-3.795-8.9438-3.986-13.1388-.19-4.1906.476-7.9872 1.185-10.729.355-1.3733.723-2.4882 1.003-3.2635.14-.3878.259-.691.343-.8996.042-.1043.076-.185.1-.2408.012-.0278.021-.0495.028-.0648l.008-.0181.002-.0055.001-.0018c0-.0006 0-.0012.914.405l.819-.5748c2.89 4.1156 6.753 7.4525 11.245 9.7135 4.202 2.1149 8.832 3.2271 13.527 3.2554v-1.958c-.038-2.9138.82-5.769 2.457-8.18 1.638-2.4129 3.977-4.2646 6.702-5.3045zm-34.46 5.1093c-.228.6713-.493 1.5264-.753 2.5289-.676 2.6133-1.302 6.2031-1.123 10.1375.179 3.93 1.159 8.1831 3.677 12.1595 2.515 3.97 6.6 7.725 13.088 10.6084.332.1475.558.4632.59.8249.032.3617-.134.7124-.434.9163-5.122 3.4762-11.044 5.5349-17.168 6.0051 12.028 5.3817 24.856 4.8707 34.971-.5135 11.105-5.9108 19.043-17.7474 19.044-34.385-.003-.7607-.076-1.5195-.219-2.2667-.062-.3278.043-.6653.28-.8997 2.244-2.2128 3.974-4.8776 5.083-7.8051-2.272 1.332-4.696 2.3908-7.224 3.1519-.376.1134-.785-.0045-1.043-.3013-1.645-1.8914-3.831-3.232-6.263-3.8405-2.431-.6084-4.991-.4553-7.333.4385-2.342.8939-4.353 2.4854-5.761 4.5593-1.408 2.074-2.145 4.5303-2.111 7.0367V61.3683c0 .5422-.432.9857-.974.9997-5.357.1389-10.665-1.0492-15.452-3.4585-4.234-2.131-7.943-5.1588-10.875-8.8643z" fill="#55ACEE"/><path fill-rule="evenodd" clip-rule="evenodd" d="M709.802 221.052C713.037 217.817 717.425 216 722 216h9.75c.552 0 1 .448 1 1v13c0 .552-.448 1-1 1H722c-.597 0-1.169.237-1.591.659-.422.422-.659.994-.659 1.591V242h12c.308 0 .599.142.788.385.19.242.257.559.182.858l-3.25 13c-.111.445-.511.757-.97.757h-8.75v25c0 .552-.448 1-1 1h-13c-.552 0-1-.448-1-1v-25H696c-.552 0-1-.448-1-1v-13c0-.552.448-1 1-1h8.75v-8.75c0-4.575 1.817-8.963 5.052-12.198zM722 218c-4.045 0-7.923 1.607-10.783 4.467-2.86 2.86-4.467 6.738-4.467 10.783V243c0 .552-.448 1-1 1H697v11h8.75c.552 0 1 .448 1 1v25h11v-25c0-.552.448-1 1-1h8.969l2.75-11H718.75c-.552 0-1-.448-1-1v-9.75c0-1.127.448-2.208 1.245-3.005.797-.797 1.878-1.245 3.005-1.245h8.75v-11H722z" fill="#395185"/><path fill-rule="evenodd" clip-rule="evenodd" d="M699.25 129c-8.422 0-15.25 6.828-15.25 15.25v32.5c0 8.422 6.828 15.25 15.25 15.25h32.5c8.422 0 15.25-6.828 15.25-15.25v-32.5c0-8.422-6.828-15.25-15.25-15.25h-32.5zM682 144.25c0-9.527 7.723-17.25 17.25-17.25h32.5c9.527 0 17.25 7.723 17.25 17.25v32.5c0 9.527-7.723 17.25-17.25 17.25h-32.5c-9.527 0-17.25-7.723-17.25-17.25v-32.5z" fill="#000"/><path fill-rule="evenodd" clip-rule="evenodd" d="M717.226 148.859c-2.448-.363-4.949.055-7.146 1.195-2.197 1.14-3.978 2.944-5.091 5.155-1.113 2.211-1.5 4.717-1.107 7.16.393 2.444 1.547 4.702 3.297 6.452 1.75 1.75 4.008 2.904 6.452 3.297 2.443.393 4.949.006 7.16-1.107 2.211-1.113 4.015-2.894 5.155-5.091 1.14-2.197 1.558-4.698 1.195-7.146-.371-2.498-1.534-4.81-3.32-6.595-1.785-1.786-4.097-2.949-6.595-3.32zm-8.067-.58c2.571-1.334 5.496-1.823 8.361-1.398 2.922.433 5.627 1.795 7.716 3.883 2.088 2.089 3.45 4.794 3.883 7.716.425 2.865-.064 5.79-1.398 8.361-1.334 2.57-3.444 4.655-6.031 5.957-2.587 1.302-5.518 1.755-8.377 1.295-2.859-.46-5.5-1.81-7.548-3.858s-3.398-4.689-3.858-7.548c-.46-2.859-.007-5.79 1.295-8.377 1.302-2.587 3.387-4.697 5.957-6.031zM733.5 141c-.276 0-.5.224-.5.5s.224.5.5.5.5-.224.5-.5-.224-.5-.5-.5zm-2.5.5c0-1.381 1.119-2.5 2.5-2.5s2.5 1.119 2.5 2.5-1.119 2.5-2.5 2.5-2.5-1.119-2.5-2.5z" fill="#000"/><path d="M270 296.5c0-.828 1.084-1.5 2.422-1.5h32.919c.824-2.331 3.046-4 5.659-4s4.835 1.669 5.659 4h193.919c1.338 0 2.422.672 2.422 1.5s-1.084 1.5-2.422 1.5H316.917c-.476 2.838-2.944 5-5.917 5s-5.441-2.162-5.917-5h-32.661c-1.338 0-2.422-.672-2.422-1.5z" fill="url(#paint6_linear)"/><path fill-rule="evenodd" clip-rule="evenodd" d="M12 120c-3.86599 0-7 3.134-7 7v66c0 3.866 3.13401 7 7 7h51c3.866 0 7-3.134 7-7v-66c0-3.866-3.134-7-7-7H12zm0 2h51c2.7614 0 5 2.239 5 5v66c0 2.761-2.2386 5-5 5H12c-2.76142 0-5-2.239-5-5v-66c0-2.761 2.23858-5 5-5zm-2 54.5c0-.828.6716-1.5 1.5-1.5h18c.8284 0 1.5.672 1.5 1.5s-.6716 1.5-1.5 1.5h-18c-.8284 0-1.5-.672-1.5-1.5zm0-5c0-.828.6716-1.5 1.5-1.5h29c.8284 0 1.5.672 1.5 1.5s-.6716 1.5-1.5 1.5h-29c-.8284 0-1.5-.672-1.5-1.5zm28-6c0-.828.6716-1.5 1.5-1.5h23c.8284 0 1.5.672 1.5 1.5s-.6716 1.5-1.5 1.5h-23c-.8284 0-1.5-.672-1.5-1.5zm-6-5c0-.828.6716-1.5 1.5-1.5h29c.8284 0 1.5.672 1.5 1.5s-.6716 1.5-1.5 1.5h-29c-.8284 0-1.5-.672-1.5-1.5zm-22-8c0-.828.6716-1.5 1.5-1.5h29c.8284 0 1.5.672 1.5 1.5s-.6716 1.5-1.5 1.5h-29c-.8284 0-1.5-.672-1.5-1.5zm0-5c0-.828.6716-1.5 1.5-1.5h40c.8284 0 1.5.672 1.5 1.5s-.6716 1.5-1.5 1.5h-40c-.8284 0-1.5-.672-1.5-1.5zm0-5c0-.828.6716-1.5 1.5-1.5h29c.8284 0 1.5.672 1.5 1.5s-.6716 1.5-1.5 1.5h-29c-.8284 0-1.5-.672-1.5-1.5zm32.6454 50.372c-.1066.096-.24.171-.4.224-.1546.048-.3173.072-.488.072-.3946 0-.6986-.107-.912-.32-.2133-.213-.32-.515-.32-.904V189.4h-.752v-.48h.752V188h.568v.92h1.28v.48h-1.28v2.512c0 .251.0614.443.184.576.128.128.3094.192.544.192.1174 0 .2294-.019.336-.056.112-.037.208-.091.288-.16l.2.408zm-3.8094.256l-1.336-1.76-1.344 1.76h-.64l1.664-2.16-1.584-2.048h.64l1.264 1.648 1.264-1.648h.624l-1.584 2.048 1.68 2.16h-.648zm-3.714-.256c-.1067.096-.24.171-.4.224-.1547.048-.3173.072-.488.072-.3947 0-.6987-.107-.912-.32-.2133-.213-.32-.515-.32-.904V189.4h-.752v-.48h.752V188h.568v.92h1.28v.48h-1.28v2.512c0 .251.0613.443.184.576.128.128.3093.192.544.192.1173 0 .2293-.019.336-.056.112-.037.208-.091.288-.16l.2.408z" fill="url(#paint7_linear)"/><path fill-rule="evenodd" clip-rule="evenodd" d="M12.8146 274.183L0 286.998c2.09097 2.441 4.46713 4.623 7.0776 6.499l12.8826-12.883C25.0983 284.018 31.2601 286 37.8848 286c17.9492 0 32.5-14.551 32.5-32.5 0-17.949-14.5508-32.5-32.5-32.5-17.9493 0-32.50003 14.551-32.50003 32.5 0 7.857 2.78849 15.064 7.42983 20.683zm36.2846-22.708c.9376-.937.1776-3.217-1.6968-5.091-1.8752-1.874-4.1552-2.634-5.092-1.697l-28.0748 28.075c-4.28268-5.252-6.85083-11.957-6.85083-19.262 0-16.845 13.65533-30.5 30.50003-30.5s30.5 13.655 30.5 30.5-13.6553 30.5-30.5 30.5c-6.0707 0-11.7272-1.774-16.4795-4.831l27.6939-27.694zm-29.3663 26.538l27.7621-27.762c-.0114-.075-.0362-.185-.0871-.337-.1896-.569-.6543-1.35-1.4191-2.115-.7657-.765-1.5472-1.23-2.1166-1.42-.153-.051-.2631-.076-.338-.087l-27.9816 27.981c1.2749 1.37 2.6743 2.623 4.1803 3.74zM6.89171 290.854c-1.46972-1.158-2.85234-2.422-4.13672-3.783l11.38261-11.383c1.2776 1.367 2.6717 2.623 4.1666 3.754L6.89171 290.854z" fill="url(#paint8_linear)"/><path fill-rule="evenodd" clip-rule="evenodd" d="M135.223 110h38.86c.476-2.838 2.944-5 5.917-5 3.314 0 6 2.686 6 6s-2.686 6-6 6c-2.973 0-5.441-2.162-5.917-5h-38.86c-3.314 0-6-2.686-6-6V76c0-2.2091-1.791-4-4-4H84.917c-.476 2.8377-2.944 5-5.917 5-3.3137 0-6-2.6863-6-6s2.6863-6 6-6c2.973 0 5.441 2.1623 5.917 5h40.306c3.314 0 6 2.6863 6 6v30c0 2.209 1.791 4 4 4zM79 74c1.6569 0 3-1.3431 3-3s-1.3431-3-3-3-3 1.3431-3 3 1.3431 3 3 3zm101 40c-1.657 0-3-1.343-3-3s1.343-3 3-3 3 1.343 3 3-1.343 3-3 3z" fill="url(#paint9_linear)"/><path fill-rule="evenodd" clip-rule="evenodd" d="M85.9176 159.003c.0272-.002.0547-.003.0824-.003h90.083c.476-2.838 2.944-5 5.917-5 3.314 0 6 2.686 6 6s-2.686 6-6 6c-2.973 0-5.441-2.162-5.917-5H86c-.0116 0-.0232 0-.0347-.001-.016 0-.0319-.001-.0477-.002C85.4429 163.836 82.9742 166 80 166c-3.3137 0-6-2.686-6-6s2.6863-6 6-6c2.9742 0 5.4429 2.164 5.9176 5.003zM179 160c0 1.657 1.343 3 3 3s3-1.343 3-3-1.343-3-3-3-3 1.343-3 3zm-96 0c0 1.657-1.3431 3-3 3s-3-1.343-3-3 1.3431-3 3-3 3 1.343 3 3z" fill="url(#paint10_linear)"/><path fill-rule="evenodd" clip-rule="evenodd" d="M174.083 210h-38.86c-2.209 0-4 1.791-4 4v30c0 3.314-2.686 6-6 6H84.9171c-.4761 2.838-2.9441 5-5.9171 5-3.3137 0-6-2.686-6-6s2.6863-6 6-6c2.973 0 5.441 2.162 5.9171 5h40.3059c2.209 0 4-1.791 4-4v-30c0-3.314 2.686-6 6-6h38.86c.476-2.838 2.944-5 5.917-5 3.314 0 6 2.686 6 6s-2.686 6-6 6c-2.973 0-5.441-2.162-5.917-5zM82 249c0-1.657-1.3431-3-3-3s-3 1.343-3 3 1.3431 3 3 3 3-1.343 3-3zm95-40c0-1.657 1.343-3 3-3s3 1.343 3 3-1.343 3-3 3-3-1.343-3-3z" fill="url(#paint11_linear)"/><path fill-rule="evenodd" clip-rule="evenodd" d="M223 297c0-9.941 8.059-18 18-18s18 8.059 18 18-8.059 18-18 18-18-8.059-18-18zm3.273 0c0-8.134 6.593-14.727 14.727-14.727s14.727 6.593 14.727 14.727-6.593 14.727-14.727 14.727-14.727-6.593-14.727-14.727zm18-6.545c.903 0 1.636.732 1.636 1.636v9.818c0 .904-.733 1.636-1.636 1.636-.904 0-1.637-.732-1.637-1.636v-9.818c0-.904.733-1.636 1.637-1.636zm-6.546 0c.904 0 1.637.732 1.637 1.636v9.818c0 .904-.733 1.636-1.637 1.636-.903 0-1.636-.732-1.636-1.636v-9.818c0-.904.733-1.636 1.636-1.636z" fill="url(#paint12_linear)"/><path fill-rule="evenodd" clip-rule="evenodd" d="M561.985 110h38.86c2.209 0 4-1.791 4-4V76c0-3.3137 2.687-6 6-6h40.306c.476-2.8377 2.945-5 5.917-5 3.314 0 6 2.6863 6 6s-2.686 6-6 6c-2.972 0-5.441-2.1623-5.917-5h-40.306c-2.209 0-4 1.7909-4 4v30c0 3.314-2.686 6-6 6h-38.86c-.476 2.838-2.944 5-5.917 5-3.313 0-6-2.686-6-6s2.687-6 6-6c2.973 0 5.441 2.162 5.917 5zm92.083-39c0 1.6569 1.344 3 3 3 1.657 0 3-1.3431 3-3s-1.343-3-3-3c-1.656 0-3 1.3431-3 3zm-95 40c0 1.657-1.343 3-3 3-1.656 0-3-1.343-3-3s1.344-3 3-3c1.657 0 3 1.343 3 3z" fill="url(#paint13_linear)"/><path fill-rule="evenodd" clip-rule="evenodd" d="M650 159c.028 0 .055.001.082.003.475-2.839 2.944-5.003 5.918-5.003 3.314 0 6 2.686 6 6s-2.686 6-6 6c-2.974 0-5.443-2.164-5.918-5.003-.017.001-.034.002-.052.003h-90.113c-.476 2.838-2.944 5-5.917 5-3.314 0-6-2.686-6-6s2.686-6 6-6c2.973 0 5.441 2.162 5.917 5H650zm6 4c-1.657 0-3-1.343-3-3s1.343-3 3-3 3 1.343 3 3-1.343 3-3 3zm-99-3c0 1.657-1.343 3-3 3s-3-1.343-3-3 1.343-3 3-3 3 1.343 3 3z" fill="url(#paint14_linear)"/><path fill-rule="evenodd" clip-rule="evenodd" d="M600.845 210h-38.86c-.476 2.838-2.944 5-5.917 5-3.313 0-6-2.686-6-6s2.687-6 6-6c2.973 0 5.441 2.162 5.917 5h38.86c3.314 0 6 2.686 6 6v30c0 2.209 1.791 4 4 4h40.306c.476-2.838 2.945-5 5.917-5 3.314 0 6 2.686 6 6s-2.686 6-6 6c-2.972 0-5.441-2.162-5.917-5h-40.306c-3.313 0-6-2.686-6-6v-30c0-2.209-1.791-4-4-4zm56.223 36c-1.656 0-3 1.343-3 3s1.344 3 3 3c1.657 0 3-1.343 3-3s-1.343-3-3-3zm-101-40c1.657 0 3 1.343 3 3s-1.343 3-3 3c-1.656 0-3-1.343-3-3s1.344-3 3-3z" fill="url(#paint15_linear)"/><path fill-rule="evenodd" clip-rule="evenodd" d="M5 34c0-3.866 3.13401-7 7-7h51c3.866 0 7 3.134 7 7v66c0 3.866-3.134 7-7 7H12c-3.86599 0-7-3.134-7-7V34zm58-5H12c-2.76142 0-5 2.2386-5 5v66c0 2.761 2.23858 5 5 5h51c2.7614 0 5-2.239 5-5V34c0-2.7614-2.2386-5-5-5zM26.6611 55.6611c2.8746-2.8747 6.7735-4.4897 10.8389-4.4897s7.9643 1.615 10.8389 4.4897c2.8747 2.8746 4.4897 6.7735 4.4897 10.8389v2.173h-4.0524c-1.4174 0-2.7768.5631-3.7791 1.5654-1.0023 1.0022-1.5654 2.3616-1.5654 3.7791v5.6381c0 1.4174.5631 2.7768 1.5654 3.779C45.9994 84.4369 47.3588 85 48.7762 85h1.8794c1.4174 0 2.7768-.5631 3.779-1.5654C55.4369 82.4324 56 81.073 56 79.6556V66.5c0-4.9065-1.9491-9.6121-5.4185-13.0815C47.1121 49.9491 42.4065 48 37.5 48c-4.9065 0-9.6121 1.9491-13.0815 5.4185C20.9491 56.8879 19 61.5935 19 66.5v13.1556c0 1.4174.5631 2.7768 1.5654 3.779C21.5676 84.4369 22.927 85 24.3444 85h1.8794c1.4174 0 2.7768-.5631 3.7791-1.5654 1.0023-1.0022 1.5654-2.3616 1.5654-3.779v-5.6381c0-1.4175-.5631-2.7769-1.5654-3.7791-1.0023-1.0023-2.3617-1.5654-3.7791-1.5654h-4.0524V66.5c0-4.0654 1.615-7.9643 4.4897-10.8389zM45.5749 96.88c-.304-.288-.7493-.448-1.336-.48l1.584-1.992V94h-3.6v.512h2.864l-1.552 1.944v.424h.4c.5067 0 .8854.0987 1.136.296.2507.1973.376.4693.376.816 0 .352-.1253.6293-.376.832-.2506.1973-.6053.296-1.064.296-.352 0-.6826-.0587-.992-.176-.3093-.1227-.5573-.28-.744-.472l-.28.456c.2187.2187.5067.3947.864.528.3627.128.7467.192 1.152.192.4374 0 .808-.072 1.112-.216.304-.144.5334-.3387.688-.584.1547-.2507.232-.536.232-.856 0-.4587-.1546-.8293-.464-1.112zm-4.8505-1.248c-.32-.1813-.6774-.272-1.072-.272-.352 0-.6694.0747-.952.224-.2774.1493-.5014.3627-.672.64v-.832h-.544v5.76h.568v-2.344c.176.272.4.48.672.624.2773.1387.5866.208.928.208.4 0 .7573-.088 1.072-.264.32-.1813.5706-.4347.752-.76.1813-.3253.272-.6987.272-1.12 0-.416-.0907-.7867-.272-1.112-.1814-.3253-.432-.576-.752-.752zm-5.2364.184c-.2987-.304-.712-.456-1.24-.456-.3733 0-.7067.08-1 .24-.288.1547-.5093.3707-.664.648-.128-.2933-.3227-.5147-.584-.664-.256-.1493-.56-.224-.912-.224-.3467 0-.6533.0693-.92.208-.2667.1387-.4747.336-.624.592v-.768H29V99.6h.568v-2.208c0-.4747.1253-.8453.376-1.112.256-.272.6-.408 1.032-.408.3893 0 .688.1147.896.344.2133.2293.32.5627.32 1V99.6h.568v-2.208c0-.4747.1253-.8453.376-1.112.2507-.272.5947-.408 1.032-.408.384 0 .68.1147.888.344.2133.2293.32.5627.32 1V99.6h.568v-2.44c0-.592-.152-1.04-.456-1.344zm13.2882-23.9716h4.0524v7.8112c0 .5763-.229 1.129-.6365 1.5365s-.9602.6365-1.5365.6365h-1.8794c-.5763 0-1.129-.229-1.5366-.6365-.4075-.4075-.6364-.9602-.6364-1.5365v-5.6381c0-.5764.2289-1.1291.6364-1.5366.4076-.4075.9603-.6365 1.5366-.6365zm-26.6048 7.8112c0 .5763.229 1.129.6365 1.5365s.9602.6365 1.5365.6365h1.8794c.5763 0 1.129-.229 1.5366-.6365.4075-.4075.6364-.9602.6364-1.5365v-5.6381c0-.5764-.2289-1.1291-.6364-1.5366-.4076-.4075-.9603-.6365-1.5366-.6365h-4.0524v7.8112zm18.241 19.2804c-.24.1333-.5067.2-.8.2-.2987 0-.568-.0667-.808-.2-.2347-.1387-.4214-.3333-.56-.584-.1334-.2507-.2-.536-.2-.856 0-.32.0666-.6027.2-.848.1386-.2507.3253-.4453.56-.584.24-.1387.5093-.208.808-.208.2933 0 .56.0693.8.208s.4266.3333.56.584c.1386.2453.208.528.208.848 0 .32-.0694.6053-.208.856-.1334.2507-.32.4453-.56.584z" fill="url(#paint16_linear)"/><path d="M14.5867 221c-.4 3.6-2.4 5.6-6.00076 6.001 3.59996.4 5.60076 2.4 6.00076 6 .4-3.6 2.4-5.6 6.0008-6-3.6008-.401-5.6008-2.401-6.0008-6.001z" fill="url(#paint17_linear)"/><path d="M56.584 263.802c3.6008-.401 5.6008-2.401 6.0008-6.001.4 3.599 2.4 5.6 6.0008 6.001-3.6008.4-5.6008 2.4-6.0008 6-.4-3.6-2.4008-5.6-6.0008-6z" fill="url(#paint18_linear)"/><path d="M69.3844 230.202c-5.52.613-8.5864 3.68-9.2 9.201-.6136-5.521-3.6808-8.588-9.2-9.201 5.52-.613 8.5864-3.68 9.2-9.2.6128 5.52 3.68 8.586 9.2 9.2z" fill="url(#paint19_linear)"/><path d="M46.5855 263.4c-.2936 2.64-1.76 4.107-4.4 4.4 2.64.293 4.1072 1.76 4.4 4.4.2936-2.64 1.76-4.107 4.4-4.4-2.64-.293-4.1072-1.761-4.4-4.4zm-20-24.8c-.2936 2.64-1.76 4.107-4.4 4.4 2.64.294 4.1072 1.76 4.4 4.4.2936-2.64 1.76-4.106 4.4-4.4-2.64-.293-4.1072-1.76-4.4-4.4zm9.6-15.2c-.2936 2.639-1.76 4.107-4.4 4.4 2.64.293 4.1072 1.76 4.4 4.4.2928-2.64 1.76-4.107 4.4-4.4-2.64-.293-4.1072-1.761-4.4-4.4z" fill="#D2E3FC"/><path d="M10.8362 237.995l.4408 2.512c.0092.055.034.104.071.142.0371.038.0843.061.1345.067l2.527.435c.0506.014.0953.047.1273.092s.0495.101.0495.158c0 .057-.0175.113-.0495.158s-.0767.077-.1273.091l-2.527.435c-.0502.006-.0974.03-.1345.067-.037.038-.0618.088-.071.142l-.4408 2.512c-.0181.057-.0518.106-.0965.141-.0448.035-.0986.054-.1535.054-.055 0-.1085-.019-.1532-.054-.0448-.035-.0785-.084-.0965-.141l-.44083-2.512c-.00918-.054-.03397-.104-.07102-.142-.03705-.037-.08424-.061-.13451-.067l-2.52698-.435c-.05056-.014-.09533-.046-.12733-.091-.03201-.045-.0495-.101-.0495-.158 0-.057.01749-.113.0495-.158.032-.045.07677-.078.12733-.092l2.52698-.435c.05027-.006.09746-.029.13451-.067.03705-.038.06184-.087.07102-.142l.44083-2.512c.018-.056.0517-.106.0965-.141.0447-.034.0982-.053.1532-.053.0549 0 .1087.019.1535.053.0447.035.0784.085.0965.141zM61.6643 278.017l.4898 2.791c.0102.06.0378.116.0789.158.0412.042.0936.068.1495.074l2.8077.483c.0562.016.106.052.1415.102.0356.05.055.112.055.176 0 .063-.0194.125-.055.175-.0355.05-.0853.086-.1415.102l-2.8077.483c-.0559.007-.1083.033-.1495.075-.0411.042-.0687.097-.0789.158l-.4898 2.791c-.0201.063-.0575.117-.1072.156-.0497.039-.1096.06-.1706.06s-.1204-.021-.1702-.06c-.0497-.039-.0871-.093-.1072-.156l-.4898-2.791c-.0102-.061-.0377-.116-.0789-.158-.0412-.042-.0936-.068-.1494-.075l-2.8078-.483c-.0562-.016-.1059-.052-.1415-.102-.0355-.05-.055-.112-.055-.175 0-.064.0195-.126.055-.176.0356-.05.0853-.086.1415-.102l2.8078-.483c.0558-.006.1082-.032.1494-.074.0412-.042.0687-.098.0789-.158l.4898-2.791c.0201-.063.0575-.118.1072-.157.0498-.038.1092-.059.1702-.059.061 0 .1209.021.1706.059.0497.039.0871.094.1072.157z" fill="#C9CCD0"/><defs><linearGradient id="paint6_linear" x1="-4.8e-7" y1="171" x2="663.068" y2="171" gradientUnits="userSpaceOnUse"><stop/><stop offset=".05" stop-color="#35005E"/><stop offset=".1" stop-color="#5000A2"/><stop offset=".15" stop-color="#4A00D3"/><stop offset=".2" stop-color="#2802E9"/><stop offset=".25" stop-color="#0E3AF8"/><stop offset=".3" stop-color="#018DE6"/><stop offset=".35" stop-color="#00CEA0"/><stop offset=".4" stop-color="#00D24A"/><stop offset=".45" stop-color="#00BC0D"/><stop offset=".5" stop-color="#00B700"/><stop offset=".55" stop-color="#00BC0D"/><stop offset=".6" stop-color="#65D200"/><stop offset=".65" stop-color="#BAD600"/><stop offset=".7" stop-color="#F9B700"/><stop offset=".75" stop-color="#FF7A00"/><stop offset=".8" stop-color="#F40"/><stop offset=".85" stop-color="#FF2501"/><stop offset=".9" stop-color="#D00E00"/><stop offset=".95" stop-color="#7B0200"/><stop offset="1"/></linearGradient><linearGradient id="paint7_linear" x1="-4.8e-7" y1="171" x2="663.068" y2="171" gradientUnits="userSpaceOnUse"><stop/><stop offset=".05" stop-color="#35005E"/><stop offset=".1" stop-color="#5000A2"/><stop offset=".15" stop-color="#4A00D3"/><stop offset=".2" stop-color="#2802E9"/><stop offset=".25" stop-color="#0E3AF8"/><stop offset=".3" stop-color="#018DE6"/><stop offset=".35" stop-color="#00CEA0"/><stop offset=".4" stop-color="#00D24A"/><stop offset=".45" stop-color="#00BC0D"/><stop offset=".5" stop-color="#00B700"/><stop offset=".55" stop-color="#00BC0D"/><stop offset=".6" stop-color="#65D200"/><stop offset=".65" stop-color="#BAD600"/><stop offset=".7" stop-color="#F9B700"/><stop offset=".75" stop-color="#FF7A00"/><stop offset=".8" stop-color="#F40"/><stop offset=".85" stop-color="#FF2501"/><stop offset=".9" stop-color="#D00E00"/><stop offset=".95" stop-color="#7B0200"/><stop offset="1"/></linearGradient><linearGradient id="paint8_linear" x1="-4.8e-7" y1="171" x2="663.068" y2="171" gradientUnits="userSpaceOnUse"><stop/><stop offset=".05" stop-color="#35005E"/><stop offset=".1" stop-color="#5000A2"/><stop offset=".15" stop-color="#4A00D3"/><stop offset=".2" stop-color="#2802E9"/><stop offset=".25" stop-color="#0E3AF8"/><stop offset=".3" stop-color="#018DE6"/><stop offset=".35" stop-color="#00CEA0"/><stop offset=".4" stop-color="#00D24A"/><stop offset=".45" stop-color="#00BC0D"/><stop offset=".5" stop-color="#00B700"/><stop offset=".55" stop-color="#00BC0D"/><stop offset=".6" stop-color="#65D200"/><stop offset=".65" stop-color="#BAD600"/><stop offset=".7" stop-color="#F9B700"/><stop offset=".75" stop-color="#FF7A00"/><stop offset=".8" stop-color="#F40"/><stop offset=".85" stop-color="#FF2501"/><stop offset=".9" stop-color="#D00E00"/><stop offset=".95" stop-color="#7B0200"/><stop offset="1"/></linearGradient><linearGradient id="paint9_linear" x1="-4.8e-7" y1="171" x2="663.068" y2="171" gradientUnits="userSpaceOnUse"><stop/><stop offset=".05" stop-color="#35005E"/><stop offset=".1" stop-color="#5000A2"/><stop offset=".15" stop-color="#4A00D3"/><stop offset=".2" stop-color="#2802E9"/><stop offset=".25" stop-color="#0E3AF8"/><stop offset=".3" stop-color="#018DE6"/><stop offset=".35" stop-color="#00CEA0"/><stop offset=".4" stop-color="#00D24A"/><stop offset=".45" stop-color="#00BC0D"/><stop offset=".5" stop-color="#00B700"/><stop offset=".55" stop-color="#00BC0D"/><stop offset=".6" stop-color="#65D200"/><stop offset=".65" stop-color="#BAD600"/><stop offset=".7" stop-color="#F9B700"/><stop offset=".75" stop-color="#FF7A00"/><stop offset=".8" stop-color="#F40"/><stop offset=".85" stop-color="#FF2501"/><stop offset=".9" stop-color="#D00E00"/><stop offset=".95" stop-color="#7B0200"/><stop offset="1"/></linearGradient><linearGradient id="paint10_linear" x1="-4.8e-7" y1="171" x2="663.068" y2="171" gradientUnits="userSpaceOnUse"><stop/><stop offset=".05" stop-color="#35005E"/><stop offset=".1" stop-color="#5000A2"/><stop offset=".15" stop-color="#4A00D3"/><stop offset=".2" stop-color="#2802E9"/><stop offset=".25" stop-color="#0E3AF8"/><stop offset=".3" stop-color="#018DE6"/><stop offset=".35" stop-color="#00CEA0"/><stop offset=".4" stop-color="#00D24A"/><stop offset=".45" stop-color="#00BC0D"/><stop offset=".5" stop-color="#00B700"/><stop offset=".55" stop-color="#00BC0D"/><stop offset=".6" stop-color="#65D200"/><stop offset=".65" stop-color="#BAD600"/><stop offset=".7" stop-color="#F9B700"/><stop offset=".75" stop-color="#FF7A00"/><stop offset=".8" stop-color="#F40"/><stop offset=".85" stop-color="#FF2501"/><stop offset=".9" stop-color="#D00E00"/><stop offset=".95" stop-color="#7B0200"/><stop offset="1"/></linearGradient><linearGradient id="paint11_linear" x1="-4.8e-7" y1="171" x2="663.068" y2="171" gradientUnits="userSpaceOnUse"><stop/><stop offset=".05" stop-color="#35005E"/><stop offset=".1" stop-color="#5000A2"/><stop offset=".15" stop-color="#4A00D3"/><stop offset=".2" stop-color="#2802E9"/><stop offset=".25" stop-color="#0E3AF8"/><stop offset=".3" stop-color="#018DE6"/><stop offset=".35" stop-color="#00CEA0"/><stop offset=".4" stop-color="#00D24A"/><stop offset=".45" stop-color="#00BC0D"/><stop offset=".5" stop-color="#00B700"/><stop offset=".55" stop-color="#00BC0D"/><stop offset=".6" stop-color="#65D200"/><stop offset=".65" stop-color="#BAD600"/><stop offset=".7" stop-color="#F9B700"/><stop offset=".75" stop-color="#FF7A00"/><stop offset=".8" stop-color="#F40"/><stop offset=".85" stop-color="#FF2501"/><stop offset=".9" stop-color="#D00E00"/><stop offset=".95" stop-color="#7B0200"/><stop offset="1"/></linearGradient><linearGradient id="paint12_linear" x1="-4.8e-7" y1="171" x2="663.068" y2="171" gradientUnits="userSpaceOnUse"><stop/><stop offset=".05" stop-color="#35005E"/><stop offset=".1" stop-color="#5000A2"/><stop offset=".15" stop-color="#4A00D3"/><stop offset=".2" stop-color="#2802E9"/><stop offset=".25" stop-color="#0E3AF8"/><stop offset=".3" stop-color="#018DE6"/><stop offset=".35" stop-color="#00CEA0"/><stop offset=".4" stop-color="#00D24A"/><stop offset=".45" stop-color="#00BC0D"/><stop offset=".5" stop-color="#00B700"/><stop offset=".55" stop-color="#00BC0D"/><stop offset=".6" stop-color="#65D200"/><stop offset=".65" stop-color="#BAD600"/><stop offset=".7" stop-color="#F9B700"/><stop offset=".75" stop-color="#FF7A00"/><stop offset=".8" stop-color="#F40"/><stop offset=".85" stop-color="#FF2501"/><stop offset=".9" stop-color="#D00E00"/><stop offset=".95" stop-color="#7B0200"/><stop offset="1"/></linearGradient><linearGradient id="paint13_linear" x1="-4.8e-7" y1="171" x2="663.068" y2="171" gradientUnits="userSpaceOnUse"><stop/><stop offset=".05" stop-color="#35005E"/><stop offset=".1" stop-color="#5000A2"/><stop offset=".15" stop-color="#4A00D3"/><stop offset=".2" stop-color="#2802E9"/><stop offset=".25" stop-color="#0E3AF8"/><stop offset=".3" stop-color="#018DE6"/><stop offset=".35" stop-color="#00CEA0"/><stop offset=".4" stop-color="#00D24A"/><stop offset=".45" stop-color="#00BC0D"/><stop offset=".5" stop-color="#00B700"/><stop offset=".55" stop-color="#00BC0D"/><stop offset=".6" stop-color="#65D200"/><stop offset=".65" stop-color="#BAD600"/><stop offset=".7" stop-color="#F9B700"/><stop offset=".75" stop-color="#FF7A00"/><stop offset=".8" stop-color="#F40"/><stop offset=".85" stop-color="#FF2501"/><stop offset=".9" stop-color="#D00E00"/><stop offset=".95" stop-color="#7B0200"/><stop offset="1"/></linearGradient><linearGradient id="paint14_linear" x1="-4.8e-7" y1="171" x2="663.068" y2="171" gradientUnits="userSpaceOnUse"><stop/><stop offset=".05" stop-color="#35005E"/><stop offset=".1" stop-color="#5000A2"/><stop offset=".15" stop-color="#4A00D3"/><stop offset=".2" stop-color="#2802E9"/><stop offset=".25" stop-color="#0E3AF8"/><stop offset=".3" stop-color="#018DE6"/><stop offset=".35" stop-color="#00CEA0"/><stop offset=".4" stop-color="#00D24A"/><stop offset=".45" stop-color="#00BC0D"/><stop offset=".5" stop-color="#00B700"/><stop offset=".55" stop-color="#00BC0D"/><stop offset=".6" stop-color="#65D200"/><stop offset=".65" stop-color="#BAD600"/><stop offset=".7" stop-color="#F9B700"/><stop offset=".75" stop-color="#FF7A00"/><stop offset=".8" stop-color="#F40"/><stop offset=".85" stop-color="#FF2501"/><stop offset=".9" stop-color="#D00E00"/><stop offset=".95" stop-color="#7B0200"/><stop offset="1"/></linearGradient><linearGradient id="paint15_linear" x1="-4.8e-7" y1="171" x2="663.068" y2="171" gradientUnits="userSpaceOnUse"><stop/><stop offset=".05" stop-color="#35005E"/><stop offset=".1" stop-color="#5000A2"/><stop offset=".15" stop-color="#4A00D3"/><stop offset=".2" stop-color="#2802E9"/><stop offset=".25" stop-color="#0E3AF8"/><stop offset=".3" stop-color="#018DE6"/><stop offset=".35" stop-color="#00CEA0"/><stop offset=".4" stop-color="#00D24A"/><stop offset=".45" stop-color="#00BC0D"/><stop offset=".5" stop-color="#00B700"/><stop offset=".55" stop-color="#00BC0D"/><stop offset=".6" stop-color="#65D200"/><stop offset=".65" stop-color="#BAD600"/><stop offset=".7" stop-color="#F9B700"/><stop offset=".75" stop-color="#FF7A00"/><stop offset=".8" stop-color="#F40"/><stop offset=".85" stop-color="#FF2501"/><stop offset=".9" stop-color="#D00E00"/><stop offset=".95" stop-color="#7B0200"/><stop offset="1"/></linearGradient><linearGradient id="paint16_linear" x1="-4.8e-7" y1="171" x2="663.068" y2="171" gradientUnits="userSpaceOnUse"><stop/><stop offset=".05" stop-color="#35005E"/><stop offset=".1" stop-color="#5000A2"/><stop offset=".15" stop-color="#4A00D3"/><stop offset=".2" stop-color="#2802E9"/><stop offset=".25" stop-color="#0E3AF8"/><stop offset=".3" stop-color="#018DE6"/><stop offset=".35" stop-color="#00CEA0"/><stop offset=".4" stop-color="#00D24A"/><stop offset=".45" stop-color="#00BC0D"/><stop offset=".5" stop-color="#00B700"/><stop offset=".55" stop-color="#00BC0D"/><stop offset=".6" stop-color="#65D200"/><stop offset=".65" stop-color="#BAD600"/><stop offset=".7" stop-color="#F9B700"/><stop offset=".75" stop-color="#FF7A00"/><stop offset=".8" stop-color="#F40"/><stop offset=".85" stop-color="#FF2501"/><stop offset=".9" stop-color="#D00E00"/><stop offset=".95" stop-color="#7B0200"/><stop offset="1"/></linearGradient><linearGradient id="paint17_linear" x1="14.5867" y1="221" x2="14.5867" y2="233.001" gradientUnits="userSpaceOnUse"><stop stop-color="#F0C419"/><stop offset="1" stop-color="#E4C858"/></linearGradient><linearGradient id="paint18_linear" x1="62.5848" y1="257.801" x2="62.5848" y2="269.802" gradientUnits="userSpaceOnUse"><stop stop-color="#F0C419"/><stop offset="1" stop-color="#E4C858"/></linearGradient><linearGradient id="paint19_linear" x1="60.1844" y1="221.002" x2="60.1844" y2="239.403" gradientUnits="userSpaceOnUse"><stop stop-color="#FFCB00"/><stop offset="1" stop-color="#E4C858"/></linearGradient><radialGradient id="paint0_radial" cx="0" cy="0" r="1" gradientUnits="userSpaceOnUse" gradientTransform="matrix(22.727 0 0 22.524 365.854 254.628)"><stop offset=".1" stop-color="#F1F0F5" stop-opacity=".1"/><stop offset=".9" stop-color="#F1F0F5" stop-opacity=".5"/></radialGradient><radialGradient id="paint1_radial" cx="0" cy="0" r="1" gradientUnits="userSpaceOnUse" gradientTransform="matrix(32.7851 0 0 32.8793 306.399 237.509)"><stop offset=".1" stop-color="#FBF0D3" stop-opacity=".1"/><stop offset=".9" stop-color="#FBF0D3" stop-opacity=".5"/></radialGradient><radialGradient id="paint2_radial" cx="0" cy="0" r="1" gradientUnits="userSpaceOnUse" gradientTransform="matrix(17.4267 0 0 17.3456 397.43 216.602)"><stop offset=".1" stop-color="#F1F0F5" stop-opacity=".1"/><stop offset=".9" stop-color="#F1F0F5" stop-opacity=".5"/></radialGradient><radialGradient id="paint3_radial" cx="0" cy="0" r="1" gradientUnits="userSpaceOnUse" gradientTransform="matrix(19.5234 0 0 19.4168 326.36 221.637)"><stop offset=".1" stop-color="#00B0FF" stop-opacity=".1"/><stop offset=".9" stop-color="#00B0FF" stop-opacity=".5"/></radialGradient><radialGradient id="paint4_radial" cx="0" cy="0" r="1" gradientUnits="userSpaceOnUse" gradientTransform="matrix(30.9933 0 0 31.0666 283.24 271.197)"><stop offset=".1" stop-color="#C89BEC" stop-opacity=".1"/><stop offset=".9" stop-color="#B180CF" stop-opacity=".5"/></radialGradient><radialGradient id="paint5_radial" cx="0" cy="0" r="1" gradientUnits="userSpaceOnUse" gradientTransform="matrix(33.4157 0 0 33.3978 319.749 202.815)"><stop offset=".1" stop-color="#DFC5E5" stop-opacity=".4"/><stop offset=".9" stop-color="#DFC5E5" stop-opacity=".9"/></radialGradient></defs></svg>