<svg width="183" height="52" viewBox="0 0 183 52" fill="none" xmlns="http://www.w3.org/2000/svg">
<rect width="183" height="52"/>
<mask id="mask0" mask-type="alpha" maskUnits="userSpaceOnUse" x="6" y="6" width="171" height="40">
<path d="M6 9.69705H21.6842C25.5113 9.69705 28.9113 10.4501 31.8841 11.9564C34.8569 13.4283 37.1634 15.5336 38.8036 18.2721C40.4438 20.9765 41.2639 24.1087 41.2639 27.6688C41.2639 31.2289 40.4438 34.3783 38.8036 37.1168C37.1634 39.8211 34.8569 41.9264 31.8841 43.4326C28.9113 44.9046 25.5113 45.6406 21.6842 45.6406H6V9.69705ZM21.3767 39.9923C24.0078 39.9923 26.3143 39.4959 28.2962 38.5032C30.3123 37.4763 31.8499 36.0385 32.9092 34.19C34.0027 32.3072 34.5494 30.1335 34.5494 27.6688C34.5494 25.2041 34.0027 23.0475 32.9092 21.199C31.8499 19.3162 30.3123 17.8785 28.2962 16.8858C26.3143 15.8588 24.0078 15.3453 21.3767 15.3453H12.6632V39.9923H21.3767Z" fill="white"/>
<path d="M71.2328 32.0847C71.2328 32.5297 71.1986 33.163 71.1303 33.9846H49.6541C50.03 36.0043 51.0039 37.6132 52.5757 38.8113C54.1817 39.9752 56.1636 40.5571 58.5214 40.5571C61.5284 40.5571 64.0057 39.5644 65.9534 37.5789L69.3876 41.5327C68.1574 43.0047 66.6027 44.1172 64.7233 44.8703C62.8439 45.6235 60.7254 46 58.3676 46C55.3606 46 52.7124 45.4009 50.423 44.2028C48.1335 43.0047 46.3567 41.3445 45.0924 39.2221C43.8622 37.0655 43.2472 34.635 43.2472 31.9307C43.2472 29.2606 43.8452 26.8644 45.0411 24.742C46.2713 22.5854 47.9627 20.908 50.1154 19.7099C52.2682 18.5118 54.6943 17.9127 57.3937 17.9127C60.059 17.9127 62.4339 18.5118 64.5183 19.7099C66.6368 20.8738 68.277 22.534 69.4388 24.6906C70.6348 26.813 71.2328 29.2777 71.2328 32.0847ZM57.3937 23.0475C55.3435 23.0475 53.6008 23.6637 52.1657 24.896C50.7647 26.0941 49.9104 27.703 49.6029 29.7227H65.1333C64.86 27.7373 64.0228 26.1284 62.6218 24.896C61.2208 23.6637 59.4781 23.0475 57.3937 23.0475Z" fill="white"/>
<path d="M75.1585 7.54044H81.5655V45.6406H75.1585V7.54044Z" fill="white"/>
<path d="M87.7461 18.2208H94.1531V45.6406H87.7461V18.2208ZM90.9752 13.7022C89.8134 13.7022 88.8396 13.3427 88.0537 12.6239C87.2677 11.8708 86.8748 10.9465 86.8748 9.85109C86.8748 8.75567 87.2677 7.84852 88.0537 7.12965C88.8396 6.37655 89.8134 6 90.9752 6C92.137 6 93.1109 6.35943 93.8968 7.0783C94.6827 7.76294 95.0757 8.63586 95.0757 9.69705C95.0757 10.8267 94.6827 11.7852 93.8968 12.5725C93.1451 13.3256 92.1712 13.7022 90.9752 13.7022Z" fill="white"/>
<path d="M112.891 46C110.055 46 107.51 45.4009 105.254 44.2028C102.999 43.0047 101.239 41.3445 99.9749 39.2221C98.7106 37.0655 98.0785 34.635 98.0785 31.9307C98.0785 29.2264 98.7106 26.813 99.9749 24.6906C101.239 22.5682 102.982 20.908 105.203 19.7099C107.458 18.5118 110.021 17.9127 112.891 17.9127C115.591 17.9127 117.949 18.4604 119.965 19.5558C122.015 20.6513 123.553 22.2259 124.578 24.2798L119.657 27.1553C118.871 25.8887 117.88 24.9474 116.684 24.3312C115.522 23.6808 114.241 23.3556 112.84 23.3556C110.448 23.3556 108.466 24.1429 106.894 25.7176C105.323 27.258 104.537 29.3291 104.537 31.9307C104.537 34.5323 105.306 36.6205 106.843 38.1951C108.415 39.7356 110.414 40.5058 112.84 40.5058C114.241 40.5058 115.522 40.1977 116.684 39.5815C117.88 38.9311 118.871 37.9726 119.657 36.706L124.578 39.5815C123.518 41.6354 121.964 43.2272 119.913 44.3569C117.897 45.4523 115.557 46 112.891 46Z" fill="white"/>
<path d="M154.387 18.2208V45.6406H148.287V42.1489C147.262 43.3813 145.981 44.3398 144.443 45.0244C142.905 45.6748 141.248 46 139.471 46C135.815 46 132.928 44.9902 130.809 42.9705C128.725 40.9166 127.683 37.887 127.683 33.8819V18.2208H134.089V33.009C134.089 35.4737 134.636 37.3222 135.73 38.5546C136.857 39.7527 138.446 40.3517 140.496 40.3517C142.786 40.3517 144.597 39.65 145.93 38.2465C147.296 36.8087 147.98 34.7548 147.98 32.0847V18.2208H154.387Z" fill="white"/>
<path d="M177 44.1515C176.248 44.7677 175.326 45.2298 174.232 45.5379C173.173 45.846 172.045 46 170.849 46C167.842 46 165.519 45.2127 163.879 43.638C162.238 42.0633 161.418 39.7698 161.418 36.7574V23.561H156.908V18.4262H161.418V12.1617H167.825V18.4262H175.155V23.561H167.825V36.6033C167.825 37.9384 168.15 38.9653 168.799 39.6842C169.448 40.3689 170.388 40.7112 171.618 40.7112C173.053 40.7112 174.249 40.3346 175.206 39.5815L177 44.1515Z" fill="white"/>
</mask>
<g mask="url(#mask0)">
<path d="M6.44916 6V46H9.59315V6H6.44916Z" fill="#9F00FF"/>
<path d="M10.0423 6V46H10.9406V6H10.0423Z" fill="#9F00FF"/>
<path d="M11.8389 6V46H14.5337V6H11.8389Z" fill="#8F00FF"/>
<path d="M14.5337 6V46H16.3303V6H14.5337Z" fill="#8000FF"/>
<path d="M17.2298 6V46H18.1281V6H17.2298Z" fill="#7E00FF"/>
<path d="M18.5774 6V46H19.9248V6H18.5774Z" fill="#7F00FF"/>
<path d="M19.925 6V46H23.9673V6H19.925Z" fill="#6F00FF"/>
<path d="M24.4169 6V46H28.0101V6H24.4169Z" fill="#5F00FF"/>
<path d="M28.9088 6V46H30.7054V6H28.9088Z" fill="#5000FF"/>
<path d="M31.604 6V46H32.5023V6H31.604Z" fill="#4E00FF"/>
<path d="M33.4008 6V46H34.2991V6H33.4008Z" fill="#4000FF"/>
<path d="M34.7484 6V46H36.5449V6H34.7484Z" fill="#3F00FF"/>
<path d="M36.5452 6V46H40.5874V6H36.5452Z" fill="#2F00FF"/>
<path d="M40.5878 6V46H44.6301V6H40.5878Z" fill="#1F00FF"/>
<path d="M45.5289 6V46H45.9781L45.978 6H45.5289Z" fill="#0700FF"/>
<path d="M46.4274 6V46H46.8765L46.8764 6H46.4274Z" fill="#0700FF"/>
<path d="M47.3257 6V46H49.1223V6H47.3257Z" fill="#0E00FF"/>
<path d="M50.4701 6V46H51.8175V6H50.4701Z" fill="#0E00FF"/>
<path d="M51.8177 6V46H57.2074V6H51.8177Z" fill="#000FFF"/>
<path d="M57.2079 6V46H60.8011V6H57.2079Z" fill="#0020FF"/>
<path d="M60.8015 6V46H64.3946V6H60.8015Z" fill="#0030FF"/>
<path d="M64.3951 6V46H67.9882V6H64.3951Z" fill="#003FFF"/>
<path d="M67.9886 6V46H71.1326V6H67.9886Z" fill="#004FFF"/>
<path d="M71.5822 6V46H72.0313L72.0312 6H71.5822Z" fill="#0052FF"/>
<path d="M75.6249 6V46H78.7689V6H75.6249Z" fill="#0070FF"/>
<path d="M78.7692 6V46H83.2606V6H78.7692Z" fill="#0081FF"/>
<path d="M87.3039 6V46H88.2022V6H87.3039Z" fill="#009FFF"/>
<path d="M88.6515 6V46H89.1006L89.1005 6H88.6515Z" fill="#00A2FF"/>
<path d="M89.5499 6V46H90.4481V6H89.5499Z" fill="#00A8FF"/>
<path d="M90.8975 6V46H93.5923V6H90.8975Z" fill="#00B0FF"/>
<path d="M93.5927 6V46H94.4909V6H93.5927Z" fill="#00BEFF"/>
<path d="M94.9402 6V46H95.8385V6H94.9402Z" fill="#00C2FF"/>
<path d="M96.737 6V46H100.779V6H96.737Z" fill="#00D0FF"/>
<path d="M101.678 6V46H104.822V6H101.678Z" fill="#00E0FF"/>
<path d="M104.822 6V46H106.619V6H104.822Z" fill="#00EFFF"/>
<path d="M107.068 6V46H108.416V6H107.068Z" fill="#00F1FF"/>
<path d="M108.416 6V46H109.763V6H108.416Z" fill="#00FFFF"/>
<path d="M110.213 6V46H111.111V6H110.213Z" fill="#00FFEB"/>
<path d="M111.111 6V46H113.357V6H111.111Z" fill="#00FFDF"/>
<path d="M113.357 6V46H114.255V6H113.357Z" fill="#00FFCE"/>
<path d="M114.705 6V46H115.154L115.154 6H114.705Z" fill="#00FFBD"/>
<path d="M115.603 6V46H116.052L116.052 6H115.603Z" fill="#00FFB2"/>
<path d="M116.501 6V46H117.849V6H116.501Z" fill="#00FFA5"/>
<path d="M117.849 6V46H120.095V6H117.849Z" fill="#00FF8F"/>
<path d="M120.095 6V46H121.442V6H120.095Z" fill="#00FF79"/>
<path d="M121.443 6V46H122.79V6H121.443Z" fill="#00FF6A"/>
<path d="M122.79 6V46H124.138V6H122.79Z" fill="#00FF60"/>
<path d="M124.138 6V46H125.485V6H124.138Z" fill="#00FF4D"/>
<path d="M127.282 6V46H128.63V6H127.282Z" fill="#00FF2E"/>
<path d="M128.63 6V46H129.528V6H128.63Z" fill="#00FF1C"/>
<path d="M130.426 6V46H131.325V6H130.426Z" fill="#00FF0C"/>
<path d="M132.223 6V46H132.672L132.672 6H132.223Z" fill="#00FF00"/>
<path d="M133.122 6V46H135.367V6H133.122Z" fill="#0EFF00"/>
<path d="M136.715 6V46H138.961V6H136.715Z" fill="#10FF00"/>
<path d="M139.859 6V46H141.207V6H139.859Z" fill="#1DFF00"/>
<path d="M142.105 6V46H143.902V6H142.105Z" fill="#20FF00"/>
<path d="M144.351 6V46H145.699V6H144.351Z" fill="#20FF00"/>
<path d="M145.699 6V46H147.046V6H145.699Z" fill="#2EFF00"/>
<path d="M147.945 6V46H150.191V6H147.945Z" fill="#30FF00"/>
<path d="M150.191 6V46H151.987V6H150.191Z" fill="#3FFF00"/>
<path d="M152.886 6V46H153.784V6H152.886Z" fill="#40FF00"/>
<path d="M154.234 6V46H155.581V6H154.234Z" fill="#41FF00"/>
<path d="M159.624 6V46H160.073L160.073 6H159.624Z" fill="#52FF00"/>
<path d="M160.972 6V46H161.421L161.421 6H160.972Z" fill="#5DFF00"/>
<path d="M162.319 6V46H163.217V6H162.319Z" fill="#60FF00"/>
<path d="M165.014 6V46H165.463L165.463 6H165.014Z" fill="#6EFF00"/>
<path d="M165.913 6V46H168.158V6H165.913Z" fill="#6FFF00"/>
<path d="M169.506 6V46H169.955L169.955 6H169.506Z" fill="#73FF00"/>
<path d="M170.405 6V46H171.303V6H170.405Z" fill="#7EFF00"/>
<path d="M171.752 6V46H173.549V6H171.752Z" fill="#7FFF00"/>
<path d="M174.447 6V46H175.795V6H174.447Z" fill="#81FF00"/>
<path d="M175.795 6V46H176.995V6H175.795Z" fill="#8EFF00"/>
</g>
</svg>
