<svg width="185" height="44" viewBox="0 0 185 44" fill="none" xmlns="http://www.w3.org/2000/svg">
<path d="M110 14.6637H115.062C116.786 14.6637 118.317 15.0026 119.655 15.6804C120.994 16.3427 122.033 17.2901 122.771 18.5225C123.51 19.7394 123.879 21.1489 123.879 22.751C123.879 24.353 123.51 25.7702 122.771 27.0026C122.033 28.2195 120.994 29.1669 119.655 29.8447C118.317 30.5071 116.786 30.8383 115.062 30.8383H110V14.6637ZM114.924 28.2965C116.109 28.2965 117.147 28.0732 118.04 27.6264C118.948 27.1643 119.64 26.5173 120.117 25.6855C120.609 24.8383 120.856 23.8601 120.856 22.751C120.856 21.6418 120.609 20.6714 120.117 19.8395C119.64 18.9923 118.948 18.3453 118.04 17.8986C117.147 17.4365 116.109 17.2054 114.924 17.2054H113V28.2965H114.924Z" fill="black"/>
<path d="M137.374 24.7381C137.374 24.9384 137.358 25.2234 137.328 25.5931H127.657C127.826 26.5019 128.265 27.2259 128.973 27.7651C129.696 28.2888 130.588 28.5507 131.65 28.5507C133.004 28.5507 134.12 28.104 134.997 27.2105L136.543 28.9897C135.989 29.6521 135.289 30.1528 134.443 30.4917C133.596 30.8306 132.642 31 131.581 31C130.227 31 129.034 30.7304 128.003 30.1913C126.972 29.6521 126.172 28.905 125.603 27.9499C125.049 26.9795 124.772 25.8858 124.772 24.6688C124.772 23.4673 125.041 22.389 125.58 21.4339C126.134 20.4634 126.895 19.7086 127.865 19.1694C128.834 18.6303 129.927 18.3607 131.142 18.3607C132.342 18.3607 133.412 18.6303 134.35 19.1694C135.304 19.6932 136.043 20.4403 136.566 21.4108C137.105 22.3659 137.374 23.475 137.374 24.7381ZM131.142 20.6714C130.219 20.6714 129.434 20.9487 128.788 21.5032C128.157 22.0424 127.773 22.7664 127.634 23.6752H134.627C134.504 22.7818 134.127 22.0578 133.496 21.5032C132.866 20.9487 132.081 20.6714 131.142 20.6714Z" fill="black"/>
<path d="M139.142 13.6932H142.027V30.8383H139.142V13.6932Z" fill="black"/>
<path d="M144.81 18.4994H147.695V30.8383H144.81V18.4994ZM146.264 16.466C145.741 16.466 145.302 16.3042 144.948 15.9807C144.594 15.6418 144.417 15.2259 144.417 14.733C144.417 14.2401 144.594 13.8318 144.948 13.5083C145.302 13.1694 145.741 13 146.264 13C146.787 13 147.225 13.1617 147.579 13.4852C147.933 13.7933 148.11 14.1861 148.11 14.6637C148.11 15.172 147.933 15.6033 147.579 15.9576C147.241 16.2965 146.802 16.466 146.264 16.466Z" fill="black"/>
<path d="M156.132 31C154.855 31 153.709 30.7304 152.693 30.1913C151.678 29.6521 150.886 28.905 150.316 27.9499C149.747 26.9795 149.462 25.8858 149.462 24.6688C149.462 23.4519 149.747 22.3659 150.316 21.4108C150.886 20.4557 151.67 19.7086 152.67 19.1694C153.686 18.6303 154.84 18.3607 156.132 18.3607C157.348 18.3607 158.41 18.6072 159.317 19.1001C160.241 19.5931 160.933 20.3017 161.395 21.2259L159.179 22.5199C158.825 21.9499 158.379 21.5263 157.84 21.249C157.317 20.9564 156.74 20.81 156.109 20.81C155.032 20.81 154.14 21.1643 153.432 21.8729C152.724 22.5661 152.37 23.4981 152.37 24.6688C152.37 25.8395 152.717 26.7792 153.409 27.4878C154.117 28.181 155.017 28.5276 156.109 28.5276C156.74 28.5276 157.317 28.389 157.84 28.1117C158.379 27.819 158.825 27.3877 159.179 26.8177L161.395 28.1117C160.918 29.0359 160.218 29.7522 159.294 30.2606C158.387 30.7535 157.333 31 156.132 31Z" fill="black"/>
<path d="M174.817 18.4994V30.8383H172.071V29.267C171.609 29.8216 171.032 30.2529 170.34 30.561C169.647 30.8537 168.901 31 168.101 31C166.455 31 165.155 30.5456 164.201 29.6367C163.262 28.7125 162.793 27.3492 162.793 25.5469V18.4994H165.678V25.154C165.678 26.2632 165.924 27.095 166.416 27.6496C166.924 28.1887 167.64 28.4583 168.563 28.4583C169.594 28.4583 170.409 28.1425 171.009 27.5109C171.625 26.8639 171.932 25.9397 171.932 24.7381V18.4994H174.817Z" fill="black"/>
<path d="M185 30.1682C184.661 30.4454 184.246 30.6534 183.754 30.792C183.277 30.9307 182.769 31 182.23 31C180.876 31 179.83 30.6457 179.092 29.9371C178.353 29.2285 177.984 28.1964 177.984 26.8408V20.9024H175.953V18.5918H177.984V15.7728H180.869V18.5918H184.169V20.9024H180.869V26.7715C180.869 27.3723 181.015 27.8344 181.307 28.1579C181.6 28.466 182.023 28.62 182.577 28.62C183.223 28.62 183.761 28.4506 184.192 28.1117L185 30.1682Z" fill="black"/>
<path d="M68 22.875C68 31.7116 60.8366 38.875 52 38.875C43.1634 38.875 36 31.7116 36 22.875C36 14.0384 43.1634 6.875 52 6.875C60.8366 6.875 68 14.0384 68 22.875Z" fill="url(#paint0_radial)"/>
<path d="M58.75 10.8184C60.5984 11.8856 62.1885 13.3477 63.4066 15.1004L57.2152 19.4036C56.6305 18.5623 55.8672 17.8605 54.98 17.3482L58.75 10.8184Z" fill="url(#paint1_radial)"/>
<path fill-rule="evenodd" clip-rule="evenodd" d="M13 15.875C13.5523 15.875 14 16.3227 14 16.875L14 28.875C14 29.4273 13.5523 29.875 13 29.875C12.4477 29.875 12 29.4273 12 28.875L12 16.875C12 16.3227 12.4477 15.875 13 15.875Z" fill="black"/>
<path fill-rule="evenodd" clip-rule="evenodd" d="M9 17.875C9.55228 17.875 10 18.3227 10 18.875L10 26.875C10 27.4273 9.55229 27.875 9 27.875C8.44772 27.875 8 27.4273 8 26.875L8 18.875C8 18.3227 8.44772 17.875 9 17.875Z" fill="black"/>
<path fill-rule="evenodd" clip-rule="evenodd" d="M5 19.875C5.55228 19.875 6 20.3227 6 20.875L6 24.875C6 25.4273 5.55228 25.875 5 25.875C4.44772 25.875 4 25.4273 4 24.875L4 20.875C4 20.3227 4.44772 19.875 5 19.875Z" fill="black"/>
<path fill-rule="evenodd" clip-rule="evenodd" d="M1 20.875C1.55228 20.875 2 21.3227 2 21.875L2 23.875C2 24.4273 1.55228 24.875 1 24.875C0.447715 24.875 1.55275e-07 24.4273 1.31134e-07 23.875L4.37114e-08 21.875C1.95703e-08 21.3227 0.447715 20.875 1 20.875Z" fill="black"/>
<path fill-rule="evenodd" clip-rule="evenodd" d="M17 14.875C17.5523 14.875 18 15.3227 18 15.875L18 29.875C18 30.4273 17.5523 30.875 17 30.875C16.4477 30.875 16 30.4273 16 29.875L16 15.875C16 15.3227 16.4477 14.875 17 14.875Z" fill="black"/>
<path fill-rule="evenodd" clip-rule="evenodd" d="M21 17.875C21.5523 17.875 22 18.3227 22 18.875L22 26.875C22 27.4273 21.5523 27.875 21 27.875C20.4477 27.875 20 27.4273 20 26.875L20 18.875C20 18.3227 20.4477 17.875 21 17.875Z" fill="black"/>
<path fill-rule="evenodd" clip-rule="evenodd" d="M25 13.875C25.5523 13.875 26 14.3227 26 14.875L26 31.875C26 32.4273 25.5523 32.875 25 32.875C24.4477 32.875 24 32.4273 24 31.875L24 14.875C24 14.3227 24.4477 13.875 25 13.875Z" fill="black"/>
<path fill-rule="evenodd" clip-rule="evenodd" d="M33 13.875C33.5523 13.875 34 14.3227 34 14.875L34 30.875C34 31.4273 33.5523 31.875 33 31.875C32.4477 31.875 32 31.4273 32 30.875L32 14.875C32 14.3227 32.4477 13.875 33 13.875Z" fill="black"/>
<path fill-rule="evenodd" clip-rule="evenodd" d="M29 8.875C29.5523 8.875 30 9.32272 30 9.875L30 35.875C30 36.4273 29.5523 36.875 29 36.875C28.4477 36.875 28 36.4273 28 35.875L28 9.875C28 9.32272 28.4477 8.875 29 8.875Z" fill="black"/>
<path fill-rule="evenodd" clip-rule="evenodd" d="M67.9545 12.5082C68.4328 12.2321 69.0444 12.396 69.3205 12.8742C70.9665 15.7252 71.8833 18.9384 71.9896 22.2287C72.0959 25.519 71.3883 28.7846 69.9297 31.7358C69.685 32.2309 69.0852 32.4339 68.5901 32.1892C68.095 31.9445 67.892 31.3448 68.1367 30.8497C69.4495 28.1936 70.0863 25.2545 69.9906 22.2932C69.895 19.332 69.0699 16.4401 67.5885 13.8742C67.3123 13.396 67.4762 12.7844 67.9545 12.5082Z" fill="#743CA4"/>
<path fill-rule="evenodd" clip-rule="evenodd" d="M67.5563 5.90337C67.9468 5.51284 68.58 5.51284 68.9705 5.90337C73.1645 10.0973 75.6569 15.6957 75.9671 21.6187C76.2773 27.5418 74.3833 33.3699 70.6504 37.979C70.3028 38.4081 69.6731 38.4743 69.2439 38.1267C68.8147 37.7791 68.7486 37.1494 69.0962 36.7202C72.518 32.4952 74.2542 27.1528 73.9699 21.7233C73.6855 16.2939 71.4008 11.162 67.5563 7.31758C67.1658 6.92705 67.1658 6.29389 67.5563 5.90337Z" fill="#FF394A"/>
<path fill-rule="evenodd" clip-rule="evenodd" d="M73.4073 6.38954C73.857 6.06902 74.4815 6.17377 74.802 6.62353C78.0566 11.1903 79.8649 16.6291 79.9928 22.2355C80.1206 27.8419 78.5621 33.3575 75.519 38.0679C75.2193 38.5318 74.6003 38.6649 74.1364 38.3652C73.6725 38.0655 73.5394 37.4465 73.8391 36.9826C76.6648 32.6087 78.112 27.4871 77.9933 22.2811C77.8746 17.0752 76.1954 12.0248 73.1733 7.78427C72.8527 7.33451 72.9575 6.71007 73.4073 6.38954Z" fill="#F68A1B"/>
<path fill-rule="evenodd" clip-rule="evenodd" d="M73.2133 0.292591C73.6038 -0.0975283 74.237 -0.0975283 74.6275 0.292591C80.3201 5.97928 83.6579 13.6005 83.9752 21.6364C84.2926 29.6724 81.5661 37.5326 76.3396 43.6496C75.9811 44.0692 75.3499 44.119 74.9298 43.7608C74.5097 43.4027 74.4599 42.7721 74.8184 42.3525C79.7183 36.6178 82.2743 29.2489 81.9768 21.7152C81.6793 14.1815 78.5501 7.03661 73.2133 1.70533C72.8228 1.31522 72.8228 0.682707 73.2133 0.292591Z" fill="#F8EF10"/>
<path fill-rule="evenodd" clip-rule="evenodd" d="M82.0592 4.91877C82.5412 4.6492 83.1505 4.82142 83.4201 5.30344C86.3701 10.5783 87.9446 16.511 87.9985 22.5545C88.0524 28.598 86.5839 34.5578 83.7284 39.8844C83.4674 40.3711 82.8613 40.5542 82.3746 40.2933C81.8878 40.0323 81.7048 39.4262 81.9657 38.9394C84.6626 33.9087 86.0495 28.28 85.9986 22.5723C85.9477 16.8646 84.4606 11.2615 81.6745 6.27967C81.4049 5.79764 81.5772 5.18835 82.0592 4.91877Z" fill="#00B600"/>
<path fill-rule="evenodd" clip-rule="evenodd" d="M87.8219 7.4223C88.3345 7.21662 88.9167 7.46538 89.1224 7.97794C92.9284 17.4622 92.96 28.0434 89.2107 37.5502C89.008 38.064 88.4273 38.3162 87.9135 38.1136C87.3998 37.911 87.1475 37.3302 87.3501 36.8164C90.912 27.785 90.882 17.7328 87.2663 8.72279C87.0606 8.21024 87.3094 7.62799 87.8219 7.4223Z" fill="#00A4AB"/>
<path fill-rule="evenodd" clip-rule="evenodd" d="M93.9593 13.4186C94.5008 13.3097 95.028 13.6604 95.1368 14.2019C96.2697 19.8367 96.2876 25.639 95.1896 31.2807C95.0841 31.8228 94.5591 32.1767 94.0169 32.0712C93.4748 31.9657 93.1209 31.4407 93.2264 30.8986C94.2746 25.5133 94.2575 19.9748 93.1761 14.5961C93.0672 14.0546 93.4179 13.5274 93.9593 13.4186Z" fill="#4A2974"/>
<path fill-rule="evenodd" clip-rule="evenodd" d="M98.4953 15.9329C99.0432 15.8629 99.544 16.2504 99.6139 16.7982C100.105 20.6446 100.128 24.5363 99.6824 28.3882C99.6189 28.9368 99.1227 29.3302 98.5741 29.2667C98.0255 29.2033 97.6322 28.7071 97.6956 28.1585C98.1224 24.4671 98.1004 20.7375 97.63 17.0514C97.5601 16.5036 97.9475 16.0028 98.4953 15.9329Z" fill="#C5428A"/>
<path fill-rule="evenodd" clip-rule="evenodd" d="M102.892 26.3367C102.34 26.31 101.915 25.8412 101.942 25.2896C102.014 23.7868 102.019 22.2815 101.956 20.7783C101.933 20.2265 102.361 19.7604 102.913 19.7373C103.465 19.7141 103.931 20.1427 103.954 20.6945C104.02 22.2578 104.015 23.8233 103.939 25.3862C103.913 25.9378 103.444 26.3634 102.892 26.3367Z" fill="black"/>
<defs>
<radialGradient id="paint0_radial" cx="0" cy="0" r="1" gradientUnits="userSpaceOnUse" gradientTransform="translate(58 18.375) rotate(106.314) scale(21.36)">
<stop stop-color="#373737" stop-opacity="0.83"/>
<stop offset="1"/>
</radialGradient>
<radialGradient id="paint1_radial" cx="0" cy="0" r="1" gradientUnits="userSpaceOnUse" gradientTransform="translate(56.9375 19.2969) rotate(106.314) scale(19.3575)">
<stop stop-color="#9E9E9E" stop-opacity="0.83"/>
<stop offset="1" stop-color="#7C7C7C"/>
</radialGradient>
</defs>
</svg>
