<svg width="100" height="100" viewBox="0 0 100 100" fill="none" xmlns="http://www.w3.org/2000/svg">
<mask id="mask0" mask-type="alpha" maskUnits="userSpaceOnUse" x="0" y="0" width="100" height="100">
<path d="M-1.08876e-05 50C-8.47354e-06 22.3857 22.3858 -2.2044e-05 50 -1.96299e-05C77.6142 -1.72158e-05 100 22.3857 100 50C100 77.6142 77.6142 100 50 100C22.3857 100 -1.33018e-05 77.6142 -1.08876e-05 50Z" fill="white"/>
</mask>
<g mask="url(#mask0)">
<path d="M100 3.96729L-1.91397e-05 3.96726L-2.14922e-05 15.732L100 15.732L100 3.96729Z" fill="#009FFF"/>
<path d="M100 20.4407L-1.91397e-05 20.4406L-2.0316e-05 26.323L100 26.3218L100 20.4407Z" fill="#00A2FF"/>
<path d="M100 32.2083L-1.91397e-05 32.2082L-2.14922e-05 43.973L100 43.973L100 32.2083Z" fill="#00A8FF"/>
<path d="M100 48.6755L-1.91397e-05 48.6755L-2.59618e-05 82.7932L100 82.7932L100 48.6755Z" fill="#00B0FF"/>
<path d="M100 82.7944L-1.91397e-05 82.7944L-2.12569e-05 93.3827L100 93.3827L100 82.7944Z" fill="#00BEFF"/>
<path d="M100 99.2617L-1.91397e-05 99.2617L-2.14922e-05 111.026L100 111.026L100 99.2617Z" fill="#00C2FF"/>
</g>
</svg>
